<?xml version="1.0" encoding="UTF-8" standalone="no"?>
<svg
   xmlns:dc="http://purl.org/dc/elements/1.1/"
   xmlns:cc="http://creativecommons.org/ns#"
   xmlns:rdf="http://www.w3.org/1999/02/22-rdf-syntax-ns#"
   xmlns:svg="http://www.w3.org/2000/svg"
   xmlns="http://www.w3.org/2000/svg"
   xmlns:sodipodi="http://sodipodi.sourceforge.net/DTD/sodipodi-0.dtd"
   xmlns:inkscape="http://www.inkscape.org/namespaces/inkscape"
   width="400"
   height="400"
   viewBox="0 0 105.83333 105.83334"
   version="1.1"
   id="svg172"
   inkscape:export-filename="C:\Users\Kaja Dzielnicka\Desktop\studia\icons\sun.png"
   inkscape:export-xdpi="96"
   inkscape:export-ydpi="96"
   sodipodi:docname="cloudy.svg"
   inkscape:version="1.0.1 (3bc2e813f5, 2020-09-07)">
  <defs
     id="defs166">
    <inkscape:path-effect
       effect="spiro"
       id="path-effect472"
       is_visible="true"
       lpeversion="1" />
    <inkscape:path-effect
       effect="spiro"
       id="path-effect463"
       is_visible="true"
       lpeversion="1" />
    <inkscape:path-effect
       effect="spiro"
       id="path-effect444"
       is_visible="true"
       lpeversion="1" />
    <inkscape:path-effect
       effect="spiro"
       id="path-effect440"
       is_visible="true"
       lpeversion="1" />
    <inkscape:path-effect
       effect="spiro"
       id="path-effect424"
       is_visible="true"
       lpeversion="1" />
    <inkscape:path-effect
       effect="spiro"
       id="path-effect420"
       is_visible="true"
       lpeversion="1" />
  </defs>
  <sodipodi:namedview
     id="base"
     pagecolor="#ffffff"
     bordercolor="#666666"
     borderopacity="1.0"
     inkscape:pageopacity="0.0"
     inkscape:pageshadow="2"
     inkscape:zoom="1.8296357"
     inkscape:cx="106.13701"
     inkscape:cy="183.50784"
     inkscape:document-units="px"
     inkscape:current-layer="layer1"
     inkscape:document-rotation="0"
     showgrid="false"
     units="px"
     inkscape:snap-others="true"
     inkscape:snap-center="true"
     showguides="true"
     inkscape:guide-bbox="true"
     inkscape:window-width="1920"
     inkscape:window-height="991"
     inkscape:window-x="-9"
     inkscape:window-y="-9"
     inkscape:window-maximized="1" />
  <metadata
     id="metadata169">
    <rdf:RDF>
      <cc:Work
         rdf:about="">
        <dc:format>image/svg+xml</dc:format>
        <dc:type
           rdf:resource="http://purl.org/dc/dcmitype/StillImage" />
        <dc:title></dc:title>
      </cc:Work>
    </rdf:RDF>
  </metadata>
  <g
     inkscape:label="Layer 1"
     inkscape:groupmode="layer"
     id="layer1">
    <circle
       style="fill:#ffffff;stroke:#000000;stroke-width:0.377326"
       id="path174"
       cx="52.916668"
       cy="52.916668"
       r="52.728004" />
    <g
       id="g535"
       transform="matrix(1.1090745,0,0,1.1090745,0.36226381,-3.8570202)">
      <g
         id="g402"
         transform="matrix(0.63339885,0,0,0.63339885,-0.26275554,13.23057)"
         style="fill:#1a1a1a">
        <ellipse
           style="fill:#1a1a1a;stroke:#000000;stroke-width:0.287338"
           id="path176"
           cx="52.916668"
           cy="52.916668"
           rx="19.300611"
           ry="19.300709" />
        <rect
           style="fill:#1a1a1a;stroke:#000000;stroke-width:0.272165"
           id="rect180"
           width="2.2000401"
           height="15.098745"
           x="51.816643"
           y="17.156796"
           ry="1.4223456"
           inkscape:transform-center-y="-28.210498" />
        <rect
           style="fill:#1a1a1a;stroke:#000000;stroke-width:0.16889"
           id="rect180-9"
           width="1.3890697"
           height="9.2086401"
           x="64.135719"
           y="5.6118927"
           ry="0.86748058"
           inkscape:transform-center-y="-26.929956"
           transform="rotate(15)"
           inkscape:transform-center-x="-7.2158584" />
        <rect
           style="fill:#1a1a1a;stroke:#000000;stroke-width:0.272165"
           id="rect250"
           width="2.2000401"
           height="15.098745"
           x="71.185493"
           y="-16.391026"
           ry="1.4223456"
           inkscape:transform-center-x="-14.105252"
           inkscape:transform-center-y="-24.431007"
           transform="rotate(30)" />
        <rect
           style="fill:#1a1a1a;stroke:#000000;stroke-width:0.272165"
           id="rect268"
           width="2.2000401"
           height="15.098745"
           x="71.185486"
           y="-55.128712"
           ry="1.4223456"
           inkscape:transform-center-x="-24.43101"
           inkscape:transform-center-y="-14.105248"
           transform="rotate(60)" />
        <rect
           style="fill:#1a1a1a;stroke:#000000;stroke-width:0.272165"
           id="rect270"
           width="2.2000401"
           height="15.098745"
           x="51.816647"
           y="-88.676537"
           ry="1.4223456"
           inkscape:transform-center-x="-28.210498"
           transform="rotate(90)"
           inkscape:transform-center-y="1.5649813e-06" />
        <rect
           style="fill:#1a1a1a;stroke:#000000;stroke-width:0.272165"
           id="rect272"
           width="2.2000401"
           height="15.098745"
           x="18.268826"
           y="-108.04539"
           ry="1.4223456"
           inkscape:transform-center-x="-24.431014"
           transform="rotate(120)"
           inkscape:transform-center-y="14.105253" />
        <rect
           style="fill:#1a1a1a;stroke:#000000;stroke-width:0.272165"
           id="rect274"
           width="2.2000401"
           height="15.098745"
           x="-20.468863"
           y="-108.04538"
           ry="1.4223456"
           inkscape:transform-center-x="-14.105252"
           transform="rotate(150)"
           inkscape:transform-center-y="24.431013" />
        <rect
           style="fill:#1a1a1a;stroke:#000000;stroke-width:0.272165"
           id="rect278"
           width="2.2000401"
           height="15.098745"
           x="-54.016682"
           y="-88.676529"
           ry="1.4223456"
           transform="scale(-1)"
           inkscape:transform-center-y="28.210496"
           inkscape:transform-center-x="1.5649813e-06" />
        <rect
           style="fill:#1a1a1a;stroke:#000000;stroke-width:0.272165"
           id="rect291"
           width="2.2000401"
           height="15.098745"
           x="-73.385529"
           y="-55.128716"
           ry="1.4223456"
           transform="rotate(-150)"
           inkscape:transform-center-y="24.431008"
           inkscape:transform-center-x="14.105252" />
        <rect
           style="fill:#1a1a1a;stroke:#000000;stroke-width:0.272165"
           id="rect293"
           width="2.2000401"
           height="15.098745"
           x="-73.385521"
           y="-16.391026"
           ry="1.4223456"
           transform="rotate(-120)"
           inkscape:transform-center-y="14.105245"
           inkscape:transform-center-x="24.431008" />
        <rect
           style="fill:#1a1a1a;stroke:#000000;stroke-width:0.272165"
           id="rect295"
           width="2.2000401"
           height="15.098745"
           x="-54.016682"
           y="17.156796"
           ry="1.4223456"
           transform="rotate(-90)"
           inkscape:transform-center-y="-3.5676194e-06"
           inkscape:transform-center-x="28.210497" />
        <rect
           style="fill:#1a1a1a;stroke:#000000;stroke-width:0.272165"
           id="rect297"
           width="2.2000401"
           height="15.098745"
           x="-20.468864"
           y="36.525639"
           ry="1.4223456"
           transform="rotate(-60)"
           inkscape:transform-center-y="-14.105249"
           inkscape:transform-center-x="24.431007" />
        <rect
           style="fill:#1a1a1a;stroke:#000000;stroke-width:0.272165"
           id="rect299"
           width="2.2000401"
           height="15.098745"
           x="18.268824"
           y="36.525639"
           ry="1.4223456"
           transform="rotate(-30)"
           inkscape:transform-center-y="-24.431009"
           inkscape:transform-center-x="14.105248" />
        <rect
           style="fill:#1a1a1a;stroke:#000000;stroke-width:0.16889"
           id="rect301"
           width="1.3890697"
           height="9.2086401"
           x="74.498192"
           y="-31.90715"
           ry="0.86748058"
           inkscape:transform-center-y="-19.714092"
           transform="rotate(45)"
           inkscape:transform-center-x="-19.714099" />
        <rect
           style="fill:#1a1a1a;stroke:#000000;stroke-width:0.16889"
           id="rect303"
           width="1.3890697"
           height="9.2086401"
           x="64.71283"
           y="-69.580833"
           ry="0.86748058"
           inkscape:transform-center-y="-7.2158589"
           transform="rotate(75)"
           inkscape:transform-center-x="-26.929957" />
        <rect
           style="fill:#1a1a1a;stroke:#000000;stroke-width:0.16889"
           id="rect305"
           width="1.3890697"
           height="9.2086401"
           x="37.401623"
           y="-97.314507"
           ry="0.86748058"
           inkscape:transform-center-y="7.2158624"
           transform="rotate(105)"
           inkscape:transform-center-x="-26.929949" />
        <rect
           style="fill:#1a1a1a;stroke:#000000;stroke-width:0.16889"
           id="rect307"
           width="1.3890697"
           height="9.2086401"
           x="-0.11742154"
           y="-107.67698"
           ry="0.86748058"
           inkscape:transform-center-y="19.714095"
           transform="rotate(135)"
           inkscape:transform-center-x="-19.714091" />
        <rect
           style="fill:#1a1a1a;stroke:#000000;stroke-width:0.16889"
           id="rect309"
           width="1.3890697"
           height="9.2086401"
           x="-37.7911"
           y="-97.891632"
           ry="0.86748058"
           inkscape:transform-center-y="26.929965"
           transform="rotate(165)"
           inkscape:transform-center-x="-7.2158585" />
        <rect
           style="fill:#1a1a1a;stroke:#000000;stroke-width:0.16889"
           id="rect311"
           width="1.3890697"
           height="9.2086401"
           x="-65.524788"
           y="-70.580414"
           ry="0.86748058"
           inkscape:transform-center-y="26.929959"
           transform="rotate(-165)"
           inkscape:transform-center-x="7.2158631" />
        <rect
           style="fill:#1a1a1a;stroke:#000000;stroke-width:0.16889"
           id="rect313"
           width="1.3890697"
           height="9.2086401"
           x="-75.887253"
           y="-33.061375"
           ry="0.86748058"
           inkscape:transform-center-y="19.714095"
           transform="rotate(-135)"
           inkscape:transform-center-x="19.714101" />
        <rect
           style="fill:#1a1a1a;stroke:#000000;stroke-width:0.16889"
           id="rect315"
           width="1.3890697"
           height="9.2086401"
           x="-66.101898"
           y="4.6123052"
           ry="0.86748058"
           inkscape:transform-center-y="7.2158609"
           transform="rotate(-105)"
           inkscape:transform-center-x="26.929959" />
        <rect
           style="fill:#1a1a1a;stroke:#000000;stroke-width:0.16889"
           id="rect317"
           width="1.3890697"
           height="9.2086401"
           x="-38.790688"
           y="32.345989"
           ry="0.86748058"
           inkscape:transform-center-y="-7.2158616"
           transform="rotate(-75)"
           inkscape:transform-center-x="26.92996" />
        <rect
           style="fill:#1a1a1a;stroke:#000000;stroke-width:0.16889"
           id="rect319"
           width="1.3890697"
           height="9.2086401"
           x="-1.2716452"
           y="42.708458"
           ry="0.86748058"
           inkscape:transform-center-y="-19.714098"
           transform="rotate(-45)"
           inkscape:transform-center-x="19.714099" />
        <rect
           style="fill:#1a1a1a;stroke:#000000;stroke-width:0.16889"
           id="rect321"
           width="1.3890697"
           height="9.2086401"
           x="36.402035"
           y="32.9231"
           ry="0.86748058"
           inkscape:transform-center-y="-26.929959"
           transform="rotate(-15)"
           inkscape:transform-center-x="7.2158602" />
      </g>
      <path
         style="fill:#1a1a1a;stroke:#000000;stroke-width:0.355768px;stroke-linecap:butt;stroke-linejoin:miter;stroke-opacity:1"
         d="m 43.028686,49.811753 c 0.869189,-1.483544 2.100055,-2.759718 3.574877,-3.643626 1.727876,-1.035572 3.760363,-1.516228 5.774799,-1.512447 1.970671,0.0037 3.962887,0.473275 5.637306,1.512447 0.845425,0.524685 1.601033,1.187168 2.26867,1.924934 0.576517,0.637075 1.089469,1.331643 1.528772,2.070052 0.928162,-1.092049 2.168837,-1.91543 3.535679,-2.346473 1.018588,-0.321219 2.117115,-0.425566 3.16239,-0.206242 1.341632,0.281507 2.563814,1.1122 3.299886,2.26867 0.822167,1.291737 1.009429,2.967548 0.492669,4.408902 0.863993,-0.39294 1.828306,-0.562844 2.774568,-0.488856 0.954377,0.07462 1.88645,0.396299 2.692613,0.91254 0.806164,0.516241 1.48596,1.224996 1.982226,2.043608 0.924099,1.524342 1.189342,3.380523 1.031216,5.156072 -0.237627,2.668247 -1.393226,5.21732 -3.093645,7.287244 -1.369307,1.66686 -3.145502,3.06928 -5.224816,3.643627 -1.247381,0.344551 -2.556143,0.3817 -3.849869,0.412484 -9.47613,0.225482 -18.957624,0.225481 -28.433753,-2e-6 -1.88481,0.107991 -3.799355,-0.379195 -5.4033,-1.374953 -2.33214,-1.447835 -3.948864,-3.960803 -4.399848,-6.668517 -0.253129,-1.519794 -0.153179,-3.105682 0.355361,-4.560067 0.508541,-1.454384 1.432506,-2.771167 2.669534,-3.689649 1.247328,-0.92613 2.768221,-1.425835 4.301907,-1.673532 1.264457,-0.204215 2.554965,-0.246567 3.830091,-0.125696 0.02647,-1.872111 0.546194,-3.735066 1.492667,-5.35052 z"
         id="path418"
         inkscape:path-effect="#path-effect420"
         inkscape:original-d="m 43.028686,49.811753 c 0.412132,-1.719049 2.116495,-4.520109 3.574877,-3.643626 9.102156,5.47036 8.808345,3.182022 5.774799,-1.512447 -1.079838,-1.671071 3.758561,1.008653 5.637306,1.512447 1.878745,0.503796 1.512802,1.283647 2.26867,1.924934 0.75587,0.64129 0.646846,1.70447 1.528772,2.070052 1.340956,-1.008657 2.596483,-1.750305 3.535679,-2.346473 0.939193,-0.596167 2.108617,-0.137141 3.16239,-0.206242 1.053775,-0.0691 2.20028,1.512802 3.299886,2.26867 1.099604,0.755869 0.28019,2.712767 0.492669,4.408902 0.763174,0.161484 1.92704,-0.236427 2.774568,-0.488856 0.847534,-0.252431 3.116915,1.971121 4.674839,2.956148 1.557924,0.985026 0.687832,3.437736 1.031216,5.156072 0.34338,1.718332 -2.062072,4.858521 -3.093645,7.287244 -1.031567,2.428728 -3.482857,2.429439 -5.224816,3.643627 -1.741963,1.214183 -2.566223,0.275345 -3.849869,0.412484 -1.283646,0.13714 -18.744828,3.54e-4 -28.433753,-2e-6 -2.011395,-0.457963 -3.937041,0.847532 -5.4033,-1.374953 -1.46626,-2.222484 -5.408505,-3.918968 -4.399848,-6.668517 1.008652,-2.749552 1.420427,-7.562595 3.024895,-8.249716 1.604466,-0.68712 3.109927,-1.696807 4.301907,-1.673532 1.191981,0.02328 0.570322,5.032742 3.830091,-0.125696 0.668053,-1.912784 1.080537,-3.631477 1.492667,-5.35052 z"
         sodipodi:nodetypes="ssssscssscsssssscsssscs" />
      <path
         style="fill:#1a1a1a;stroke:#000000;stroke-width:0.187138px;stroke-linecap:butt;stroke-linejoin:miter;stroke-opacity:1"
         d="m 64.277377,65.855031 c 0.44746,-0.786724 1.102371,-1.454229 1.880429,-1.916593 0.91072,-0.541199 1.978226,-0.796511 3.037616,-0.795565 1.036653,9.25e-4 2.084583,0.248754 2.965292,0.795565 0.44465,0.276072 0.842142,0.624488 1.193348,1.012539 0.303276,0.335092 0.573097,0.700446 0.804154,1.088873 0.488224,-0.574431 1.140834,-1.007539 1.85981,-1.234273 0.53579,-0.168965 1.113628,-0.223853 1.663456,-0.108486 0.705715,0.148076 1.348598,0.585031 1.735781,1.193348 0.43247,0.679469 0.530973,1.560967 0.25915,2.319137 0.454471,-0.206691 0.961712,-0.296063 1.459458,-0.257144 0.502014,0.03925 0.992295,0.208458 1.416347,0.480007 0.424052,0.271549 0.781633,0.644363 1.042675,1.074963 0.486088,0.801823 0.625609,1.778197 0.542433,2.712158 -0.124995,1.403531 -0.732855,2.744374 -1.627296,3.83318 -0.720272,0.876789 -1.654572,1.61448 -2.748317,1.916593 -0.656138,0.181238 -1.344563,0.200779 -2.025079,0.216971 -4.984561,0.118604 -9.971944,0.118604 -14.956505,-1e-6 -0.991434,0.05681 -1.998508,-0.199461 -2.842203,-0.723242 -1.226734,-0.761579 -2.077151,-2.083431 -2.314374,-3.507722 -0.133149,-0.79943 -0.08057,-1.633628 0.186924,-2.398652 0.267499,-0.765024 0.753516,-1.457668 1.404208,-1.940801 0.65611,-0.487156 1.456119,-0.750006 2.262856,-0.880298 0.66512,-0.10742 1.343943,-0.129698 2.014675,-0.06612 l 0.785162,-2.814439 z"
         id="path418-9"
         inkscape:path-effect="#path-effect463"
         inkscape:original-d="m 64.277377,65.855031 c 0.216786,-0.904241 1.113302,-2.377633 1.880429,-1.916593 4.787847,2.877477 4.633298,1.673783 3.037616,-0.795565 -0.568008,-0.879004 1.977049,0.530564 2.965292,0.795565 0.988243,0.265003 0.795753,0.675215 1.193348,1.012539 0.397597,0.337327 0.340249,0.896573 0.804154,1.088873 0.70536,-0.530566 1.365782,-0.920682 1.85981,-1.234273 0.494028,-0.313592 1.109159,-0.07214 1.663456,-0.108486 0.5543,-0.03635 1.157375,0.795752 1.735781,1.193348 0.578406,0.397597 0.147384,1.426949 0.25915,2.319137 0.40144,0.08494 1.013647,-0.124363 1.459458,-0.257144 0.445812,-0.132782 1.639535,1.036834 2.459022,1.55497 0.819488,0.518136 0.361809,1.808292 0.542433,2.712158 0.180622,0.903864 -1.084676,2.555642 -1.627296,3.83318 -0.542616,1.27754 -1.832025,1.277915 -2.748317,1.916593 -0.916294,0.638676 -1.349865,0.144835 -2.025079,0.216971 -0.675214,0.07214 -9.860011,1.39e-4 -14.956505,-1e-6 -1.058019,-0.240894 -2.070932,0.445813 -2.842203,-0.723242 -0.771271,-1.169054 -2.84494,-2.061425 -2.314374,-3.507722 0.530563,-1.446298 0.747162,-3.978018 1.591132,-4.339453 0.843969,-0.361433 1.63586,-0.892541 2.262856,-0.880298 0.626997,0.01225 0.299997,2.647284 2.014675,-0.06612 0.351405,-1.006148 0.568376,-1.910201 0.785162,-2.814439 z"
         sodipodi:nodetypes="ssssscssscsssssscsssscs" />
      <path
         style="fill:#1a1a1a;stroke:#000000;stroke-width:0.159367px;stroke-linecap:butt;stroke-linejoin:miter;stroke-opacity:1"
         d="m 20.500968,61.135562 c 0.381058,-0.669975 0.938781,-1.238423 1.601376,-1.632172 0.77557,-0.460885 1.684659,-0.678309 2.586836,-0.677504 0.882815,7.88e-4 1.775233,0.211839 2.525246,0.677504 0.378664,0.235104 0.717168,0.531815 1.016256,0.86228 0.25827,0.285365 0.48805,0.5965 0.684818,0.927285 0.415773,-0.489186 0.971536,-0.858021 1.583816,-1.051109 0.456279,-0.143892 0.948367,-0.190636 1.416601,-0.09239 0.600988,0.126101 1.148468,0.498212 1.478193,1.016256 0.368292,0.578637 0.452176,1.329321 0.220692,1.974979 0.387028,-0.176019 0.818995,-0.252127 1.242876,-0.218984 0.427516,0.03343 0.84504,0.177523 1.206163,0.408775 0.361123,0.231251 0.665639,0.54874 0.887943,0.915439 0.413953,0.682833 0.532769,1.514314 0.461936,2.309676 -0.106446,1.195248 -0.6241,2.337112 -1.385807,3.26434 -0.613384,0.746674 -1.409035,1.374893 -2.340469,1.632173 -0.558768,0.154343 -1.145032,0.170984 -1.72456,0.184773 -4.244857,0.101003 -8.492116,0.101003 -12.736973,-2e-6 -0.844306,0.04837 -1.701932,-0.16986 -2.420423,-0.615913 -1.044688,-0.648561 -1.768904,-1.774252 -1.970923,-2.98718 -0.11339,-0.680796 -0.06862,-1.391199 0.159185,-2.042694 0.227802,-0.651495 0.641695,-1.241352 1.195825,-1.652788 0.558744,-0.414862 1.240032,-0.638706 1.92705,-0.749663 0.566417,-0.09148 1.144503,-0.110452 1.715699,-0.05631 l 0.668644,-2.39678 z"
         id="path418-2"
         inkscape:path-effect="#path-effect472"
         inkscape:original-d="m 20.500968,61.135562 c 0.184616,-0.770052 0.94809,-2.024794 1.601376,-1.632172 4.077334,2.450462 3.945721,1.425396 2.586836,-0.677504 -0.483716,-0.748561 1.683657,0.451829 2.525246,0.677504 0.841589,0.225677 0.677664,0.575013 1.016256,0.86228 0.338594,0.287267 0.289756,0.763521 0.684818,0.927285 0.600685,-0.451831 1.163102,-0.784054 1.583816,-1.051109 0.420715,-0.267054 0.944561,-0.06143 1.416601,-0.09239 0.472042,-0.03095 0.985621,0.677663 1.478193,1.016256 0.492571,0.338594 0.125512,1.215191 0.220692,1.974979 0.341867,0.07234 0.863223,-0.105908 1.242876,-0.218984 0.379654,-0.113077 1.39623,0.882969 2.094106,1.324214 0.697876,0.441245 0.308116,1.539943 0.461936,2.309676 0.153817,0.769731 -0.923711,2.176387 -1.385807,3.26434 -0.462092,1.087955 -1.560154,1.088274 -2.340469,1.632173 -0.780318,0.543896 -1.149547,0.123341 -1.72456,0.184773 -0.575013,0.06143 -8.396794,1.18e-4 -12.736973,-2e-6 -0.90101,-0.205145 -1.763608,0.379655 -2.420423,-0.615913 -0.656815,-0.995568 -2.422754,-1.755512 -1.970923,-2.98718 0.451828,-1.231669 0.636284,-3.387684 1.35501,-3.695482 0.718724,-0.307797 1.393099,-0.760089 1.92705,-0.749663 0.533951,0.01043 0.255477,2.25443 1.715699,-0.05631 0.299256,-0.856837 0.48403,-1.62673 0.668644,-2.39678 z"
         sodipodi:nodetypes="ssssscssscsssssscsssscs" />
    </g>
  </g>
</svg>
