<?xml version="1.0" encoding="UTF-8" standalone="no"?>
<svg
   xmlns:dc="http://purl.org/dc/elements/1.1/"
   xmlns:cc="http://creativecommons.org/ns#"
   xmlns:rdf="http://www.w3.org/1999/02/22-rdf-syntax-ns#"
   xmlns:svg="http://www.w3.org/2000/svg"
   xmlns="http://www.w3.org/2000/svg"
   xmlns:sodipodi="http://sodipodi.sourceforge.net/DTD/sodipodi-0.dtd"
   xmlns:inkscape="http://www.inkscape.org/namespaces/inkscape"
   width="400"
   height="400"
   viewBox="0 0 105.83333 105.83334"
   version="1.1"
   id="svg8"
   inkscape:version="1.0.1 (3bc2e813f5, 2020-09-07)"
   sodipodi:docname="night.svg"
   inkscape:export-filename="C:\Users\Kaja Dzielnicka\Desktop\studia\icons\drawing.png"
   inkscape:export-xdpi="96"
   inkscape:export-ydpi="96">
  <defs
     id="defs2">
    <inkscape:path-effect
       effect="spiro"
       id="path-effect141"
       is_visible="true"
       lpeversion="1" />
    <inkscape:path-effect
       effect="spiro"
       id="path-effect132"
       is_visible="true"
       lpeversion="1" />
    <inkscape:path-effect
       effect="spiro"
       id="path-effect123"
       is_visible="true"
       lpeversion="1" />
    <inkscape:path-effect
       effect="spiro"
       id="path-effect114"
       is_visible="true"
       lpeversion="1" />
    <inkscape:path-effect
       effect="spiro"
       id="path-effect105"
       is_visible="true"
       lpeversion="1" />
    <inkscape:path-effect
       effect="spiro"
       id="path-effect96"
       is_visible="true"
       lpeversion="1" />
    <inkscape:path-effect
       effect="spiro"
       id="path-effect64"
       is_visible="true"
       lpeversion="1" />
    <inkscape:path-effect
       effect="spiro"
       id="path-effect52"
       is_visible="true"
       lpeversion="1" />
    <inkscape:path-effect
       effect="spiro"
       id="path-effect48"
       is_visible="true"
       lpeversion="1" />
  </defs>
  <sodipodi:namedview
     id="base"
     pagecolor="#ffffff"
     bordercolor="#666666"
     borderopacity="1.0"
     inkscape:pageopacity="0.0"
     inkscape:pageshadow="2"
     inkscape:zoom="1.4"
     inkscape:cx="-2.7657405"
     inkscape:cy="206.5851"
     inkscape:document-units="mm"
     inkscape:current-layer="layer1"
     inkscape:document-rotation="0"
     showgrid="false"
     units="px"
     inkscape:window-width="1920"
     inkscape:window-height="991"
     inkscape:window-x="-9"
     inkscape:window-y="-9"
     inkscape:window-maximized="1" />
  <metadata
     id="metadata5">
    <rdf:RDF>
      <cc:Work
         rdf:about="">
        <dc:format>image/svg+xml</dc:format>
        <dc:type
           rdf:resource="http://purl.org/dc/dcmitype/StillImage" />
        <dc:title></dc:title>
      </cc:Work>
    </rdf:RDF>
  </metadata>
  <g
     inkscape:label="Layer 1"
     inkscape:groupmode="layer"
     id="layer1">
    <circle
       style="fill:#ffffff;stroke:#000000;stroke-width:0.376656"
       id="path18"
       cx="52.916656"
       cy="52.916649"
       r="52.72834"
       inkscape:export-xdpi="96"
       inkscape:export-ydpi="96" />
    <path
       style="fill:#000000;stroke:#000000;stroke-width:0.264583px;stroke-linecap:butt;stroke-linejoin:miter;stroke-opacity:1"
       d="m 86.194423,68.554634 c -3.676732,2.680269 -7.409474,5.373488 -11.626226,7.082641 -6.611861,2.679948 -14.156771,2.749862 -20.980656,0.668174 C 44.222097,73.448435 36.166529,66.491059 32.072344,57.596582 29.719588,52.4853 28.648991,46.752354 29.266012,41.159506 c 0.540057,-4.895229 2.334881,-9.565217 4.409948,-14.03165 1.625322,-3.498388 3.432641,-6.912213 5.412209,-10.223059 -2.989008,1.100668 -5.844893,2.562341 -8.485808,4.34313 -4.123637,2.780598 -7.716194,6.341223 -10.557147,10.423513 -4.329953,6.2219 -6.887995,13.674765 -7.216277,21.247925 -0.416209,9.601558 2.822305,19.326194 8.953529,26.726954 5.729863,6.916293 13.909751,11.741328 22.71791,13.49711 8.537732,1.701876 17.652931,0.515193 25.390604,-3.474503 5.85923,-3.021134 10.860408,-7.568454 14.83346,-12.828937 2.845417,-3.767448 5.188858,-7.913537 6.949007,-12.294398 -1.823964,1.339593 -3.650309,2.675944 -5.479024,4.009043 z"
       id="path50"
       inkscape:original-d="m 86.194423,68.554634 c -3.875146,2.361144 -4.632936,6.859653 -11.626226,7.082641 -6.993286,0.222988 -13.809188,6.904199 -20.980656,0.668174 C 46.416073,70.069426 33.007522,63.075343 32.072344,57.596582 31.137164,52.117823 24.941322,43.46874 29.266012,41.159506 37.6645,36.675005 60.179449,31.354398 33.67596,27.127856 c -4.014753,-0.640237 25.753447,0.02741 5.412209,-10.223059 -2.338345,0.200717 -5.278309,2.873412 -8.485808,4.34313 -3.207498,1.469718 -7.037833,6.949271 -10.557147,10.423513 -3.519313,3.474238 -4.810587,14.165548 -7.216277,21.247925 -2.40569,7.08238 5.969284,17.818234 8.953529,26.726954 2.984245,8.908719 15.145538,8.998338 22.71791,13.49711 7.572372,4.498774 16.927335,-2.31607 25.390604,-3.474503 8.46327,-1.158433 9.889236,-8.55236 14.83346,-12.828937 4.944221,-4.276577 6.548368,-8.285091 6.949007,-12.294398 -2.583343,0.445711 -1.603881,1.647896 -5.479024,4.009043 z"
       inkscape:path-effect="#path-effect52"
       sodipodi:nodetypes="sssssscssssssscs" />
    <path
       style="fill:#000000;stroke:#000000;stroke-width:0.0718424px;stroke-linecap:butt;stroke-linejoin:miter;stroke-opacity:1"
       d="m 47.27686,38.994274 c -0.01991,0.254173 -0.04808,0.507698 -0.08445,0.760041 -0.03484,0.241696 -0.0772,0.482261 -0.123431,0.722038 -0.0464,0.240612 -0.09714,0.481953 -0.188395,0.709372 -0.08526,0.212488 -0.205704,0.411121 -0.357301,0.582698 -0.06795,0.07691 -0.142432,0.148653 -0.226654,0.207304 -0.08673,0.0604 -0.182641,0.106169 -0.273568,0.160048 -0.07648,0.04532 -0.149515,0.09642 -0.227373,0.139341 -0.08612,0.04747 -0.177487,0.08457 -0.266352,0.126674 -0.09786,0.04637 -0.193155,0.09912 -0.279344,0.164675 -0.05094,0.03874 -0.0995,0.08304 -0.129928,0.139341 -0.03514,0.06502 -0.04351,0.141574 -0.03898,0.215345 0.0044,0.07093 0.02063,0.142531 0.05847,0.202678 0.04897,0.07784 0.129156,0.129822 0.207884,0.177342 0.127113,0.07672 0.257224,0.148466 0.389782,0.215345 0.120491,0.06079 0.243322,0.117743 0.357301,0.19001 0.144016,0.09131 0.27206,0.205982 0.389783,0.329351 0.09999,0.104784 0.193476,0.216853 0.266352,0.342019 0.08931,0.153389 0.14597,0.323407 0.194891,0.494026 0.06575,0.22931 0.118643,0.462203 0.16241,0.696704 0.04304,0.230608 0.07729,0.462981 0.09745,0.696704 0.02013,0.233383 0.02647,0.469743 0.08445,0.696704 0.04296,0.168177 0.11444,0.333161 0.110438,0.506693 -0.0012,0.0529 -0.0095,0.106557 0.0019,0.158227 0.0057,0.02584 0.01649,0.05092 0.03389,0.07085 0.0174,0.01993 0.04179,0.03435 0.06812,0.03694 0.02531,0.0025 0.05094,-0.006 0.07193,-0.02038 0.021,-0.01436 0.03771,-0.03425 0.0515,-0.05562 0.04127,-0.06397 0.05732,-0.14054 0.07146,-0.215345 0.03812,-0.20171 0.06803,-0.404871 0.09745,-0.608033 0.03604,-0.248928 0.07136,-0.497968 0.103942,-0.747372 0.0293,-0.224258 0.05641,-0.448959 0.09745,-0.671369 0.03948,-0.213937 0.09181,-0.425479 0.155913,-0.633367 0.05924,-0.192109 0.128974,-0.382055 0.227373,-0.557364 0.08371,-0.149147 0.189328,-0.288307 0.324819,-0.392687 0.139215,-0.107249 0.304422,-0.174036 0.461243,-0.253348 0.144464,-0.07306 0.283034,-0.157503 0.428762,-0.228011 0.09615,-0.04652 0.197829,-0.08864 0.272848,-0.164676 0.0459,-0.04652 0.07971,-0.103989 0.103942,-0.164676 0.02406,-0.06026 0.03912,-0.125461 0.03248,-0.190009 -0.0072,-0.06995 -0.03975,-0.135731 -0.08445,-0.190011 -0.06142,-0.07459 -0.14422,-0.128133 -0.227374,-0.177343 -0.131048,-0.07755 -0.266487,-0.147421 -0.402775,-0.215345 -0.09141,-0.04556 -0.183273,-0.09028 -0.272848,-0.13934 -0.100521,-0.05506 -0.198477,-0.115828 -0.285841,-0.19001 -0.07966,-0.06764 -0.149814,-0.145847 -0.214381,-0.228013 -0.101593,-0.129282 -0.19003,-0.269161 -0.259855,-0.418022 -0.09602,-0.204701 -0.15609,-0.424518 -0.201388,-0.646035 -0.04885,-0.238906 -0.081,-0.480851 -0.116934,-0.722038 -0.03962,-0.265929 -0.0839,-0.531216 -0.116936,-0.798043 -0.03045,-0.245943 -0.05148,-0.493999 -0.110438,-0.734706 -0.01754,-0.07163 -0.03935,-0.144332 -0.08445,-0.202677 -0.01283,-0.0166 -0.02757,-0.03196 -0.04506,-0.04354 -0.01749,-0.01159 -0.03791,-0.01928 -0.05888,-0.0198 -0.022,-5.44e-4 -0.04375,0.0068 -0.06238,0.01854 -0.01863,0.01171 -0.03435,0.02759 -0.04806,0.0448 -0.04143,0.05204 -0.0651,0.116349 -0.07802,0.181597 -0.01293,0.06525 -0.01572,0.13201 -0.01943,0.198423 -0.0083,0.14815 -0.02127,0.296037 -0.03898,0.443357 z"
       id="path62"
       inkscape:path-effect="#path-effect64"
       inkscape:original-d="m 47.27686,38.994274 c -0.01954,0.122351 -0.05625,0.506794 -0.08445,0.760041 -0.0282,0.253246 -0.08224,0.481459 -0.123431,0.722038 -0.0412,0.240579 -0.125546,0.473015 -0.188395,0.709372 -0.06285,0.236356 -0.23815,0.388565 -0.357301,0.582698 -0.05833,0.09504 -0.13946,0.15574 -0.226654,0.207304 -0.09092,0.05377 -0.188429,0.09759 -0.273568,0.160048 -0.166792,0.122351 -0.151531,0.09299 -0.227373,0.139341 -0.07584,0.04635 -0.177516,0.08455 -0.266352,0.126674 -0.08884,0.04212 -0.186178,0.109883 -0.279344,0.164675 -0.09317,0.05479 -0.08224,0.07188 -0.129928,0.139341 -0.04769,0.06746 -0.03027,0.164776 -0.03898,0.215345 -0.0087,0.05057 0.03903,0.135218 0.05847,0.202678 0.01944,0.06746 0.138641,0.118328 0.207884,0.177342 0.06924,0.05901 0.259906,0.143663 0.389782,0.215345 0.129877,0.07168 0.238253,0.126774 0.357301,0.19001 0.119049,0.06324 0.259907,0.219668 0.389783,0.329351 0.129877,0.109683 0.17762,0.228112 0.266352,0.342019 0.08873,0.113905 0.129979,0.32945 0.194891,0.494026 0.06491,0.164575 0.108325,0.464569 0.16241,0.696704 0.05409,0.232134 0.06502,0.464569 0.09745,0.696704 0.03243,0.232134 0.05635,0.464569 0.08445,0.696704 0.0281,0.232134 0.07368,0.337895 0.110438,0.506693 0.03676,0.168798 0.05202,0.177443 0.103942,0.266014 0.05192,0.08857 0.0975,-0.05479 0.123431,-0.076 0.02593,-0.02121 0.04986,-0.12235 0.07146,-0.215345 0.0216,-0.09299 0.06502,-0.422144 0.09745,-0.608033 0.03243,-0.185887 0.06935,-0.498148 0.103942,-0.747372 0.0346,-0.249225 0.06502,-0.44748 0.09745,-0.671369 0.03243,-0.22389 0.103993,-0.422145 0.155913,-0.633367 0.05192,-0.211224 0.151634,-0.371476 0.227373,-0.557364 0.07574,-0.185888 0.210102,-0.287026 0.324819,-0.392687 0.114719,-0.105662 0.314044,-0.143463 0.461243,-0.253348 0.1472,-0.109884 0.285893,-0.151907 0.428762,-0.228011 0.142869,-0.0761 0.18195,-0.109684 0.272848,-0.164676 0.0909,-0.05499 0.06935,-0.109683 0.103942,-0.164676 0.0346,-0.05499 0.02171,-0.126573 0.03248,-0.190009 0.01078,-0.06344 -0.05625,-0.130796 -0.08445,-0.190011 -0.0282,-0.05921 -0.158028,-0.135018 -0.227374,-0.177343 -0.06935,-0.04233 -0.261969,-0.122351 -0.402775,-0.215345 -0.140807,-0.09299 -0.181847,-0.09279 -0.272848,-0.13934 -0.091,-0.04655 -0.190509,-0.126574 -0.285841,-0.19001 -0.09533,-0.06344 -0.142869,-0.151908 -0.214381,-0.228013 -0.07151,-0.0761 -0.173185,-0.278581 -0.259855,-0.418022 -0.08667,-0.139442 -0.134207,-0.430589 -0.201388,-0.646035 -0.06718,-0.215445 -0.07791,-0.481258 -0.116934,-0.722038 -0.03903,-0.24078 -0.0779,-0.531928 -0.116936,-0.798043 -0.03903,-0.266114 -0.07357,-0.489703 -0.110438,-0.734706 -0.03686,-0.245002 -0.05625,-0.135017 -0.08445,-0.202677 -0.0282,-0.06766 -0.06924,-0.04212 -0.103942,-0.06334 -0.0347,-0.02121 -0.07357,0.04233 -0.110438,0.06334 -0.03686,0.02101 -0.07141,0.228112 -0.09745,0.38002 -0.02604,0.151908 -0.01944,0.321007 -0.03898,0.443357 z"
       sodipodi:nodetypes="sssssssssssssssssssssssssssssssssssssssssssssssssssss" />
    <path
       style="fill:#000000;stroke:#000000;stroke-width:0.176948px;stroke-linecap:butt;stroke-linejoin:miter;stroke-opacity:1"
       d="m 65.787344,51.671424 c -0.05726,0.544306 -0.137288,1.086216 -0.239793,1.623841 -0.09878,0.518078 -0.218398,1.032039 -0.350466,1.542647 -0.134472,0.519902 -0.28366,1.040982 -0.534921,1.515586 -0.251993,0.475985 -0.603588,0.896796 -1.014509,1.244944 -0.199081,0.168669 -0.412792,0.32112 -0.643552,0.44291 -0.250273,0.132088 -0.518177,0.226972 -0.776759,0.341945 -0.216557,0.09629 -0.426745,0.20675 -0.645596,0.297704 -0.247284,0.102771 -0.504258,0.180076 -0.756269,0.270641 -0.272481,0.09792 -0.539808,0.211663 -0.793161,0.351831 -0.139566,0.07722 -0.278757,0.166125 -0.368912,0.297704 -0.09091,0.132687 -0.123738,0.299774 -0.110673,0.460088 0.01274,0.156339 0.06837,0.310261 0.166011,0.433025 0.147107,0.184964 0.373262,0.285277 0.590259,0.378895 0.366864,0.158275 0.733722,0.316907 1.106735,0.460089 0.340162,0.130572 0.685924,0.248504 1.014508,0.405959 0.39501,0.189287 0.761509,0.43407 1.106735,0.703665 0.277052,0.216356 0.543155,0.451178 0.756271,0.73073 0.241658,0.316991 0.409394,0.683804 0.553367,1.055495 0.187754,0.48472 0.338504,0.983382 0.461141,1.488521 0.119124,0.490671 0.211833,0.987779 0.276683,1.488521 0.06462,0.498958 0.102191,1.004578 0.239793,1.48852 0.102886,0.361845 0.261286,0.710025 0.313574,1.082561 0.01589,0.113234 0.02216,0.229366 0.06192,0.336573 0.01988,0.0536 0.04828,0.104587 0.08754,0.146147 0.03926,0.04156 0.08983,0.07336 0.145669,0.08562 0.06633,0.01456 0.136999,7.82e-4 0.19734,-0.03037 0.06034,-0.03115 0.111009,-0.07875 0.153127,-0.132018 0.10468,-0.132392 0.157773,-0.297456 0.202901,-0.460088 0.118422,-0.426766 0.196118,-0.863571 0.276685,-1.299073 0.09846,-0.532245 0.201469,-1.063664 0.295129,-1.596775 0.08428,-0.479698 0.161088,-0.961264 0.276684,-1.434392 0.112746,-0.461463 0.262196,-0.91379 0.442695,-1.353199 0.172032,-0.418797 0.373909,-0.828641 0.645595,-1.190818 0.25102,-0.334627 0.561838,-0.626691 0.922279,-0.838985 0.407625,-0.240085 0.867398,-0.373288 1.309639,-0.541281 0.408643,-0.15523 0.805245,-0.341523 1.217407,-0.487151 0.268758,-0.09496 0.550411,-0.17595 0.774718,-0.351832 0.121318,-0.09513 0.222114,-0.216056 0.29513,-0.351834 0.06682,-0.124262 0.110967,-0.266118 0.09223,-0.405958 -0.01065,-0.0795 -0.04137,-0.155596 -0.0839,-0.223607 -0.04253,-0.06801 -0.0967,-0.128217 -0.155891,-0.182354 -0.18499,-0.169193 -0.416044,-0.278138 -0.645599,-0.378896 C 72.27281,58.921793 71.890056,58.77173 71.505481,58.626873 71.246579,58.529353 70.986737,58.434147 70.730768,58.329169 70.450504,58.214227 70.173955,58.08704 69.919162,57.92321 69.70024,57.782445 69.498919,57.615566 69.310457,57.436057 69.030081,57.169 68.776439,56.872177 68.572633,56.542945 68.309599,56.118034 68.13281,55.644672 68.00082,55.162681 67.861861,54.65524 67.771049,54.136125 67.6688,53.620033 67.556263,53.052014 67.429633,52.486567 67.336778,51.915 c -0.08567,-0.527364 -0.143396,-1.063262 -0.313574,-1.569713 -0.05307,-0.157948 -0.12008,-0.317124 -0.239793,-0.433025 -0.0796,-0.07706 -0.184365,-0.132817 -0.295129,-0.135319 -0.05841,-0.0013 -0.116776,0.01215 -0.170015,0.03622 -0.05324,0.02408 -0.101446,0.05859 -0.143561,0.09909 -0.105367,0.101333 -0.171153,0.238083 -0.209881,0.379046 -0.03873,0.140964 -0.05228,0.287412 -0.0668,0.432876 -0.03158,0.316337 -0.06848,0.632143 -0.110674,0.94724 z"
       id="path62-5"
       inkscape:path-effect="#path-effect96"
       inkscape:original-d="m 65.787344,51.671424 c -0.05548,0.261404 -0.159715,1.082774 -0.239793,1.623841 -0.08008,0.541065 -0.233497,1.028646 -0.350466,1.542647 -0.116967,0.514002 -0.356468,1.010605 -0.534921,1.515586 -0.178454,0.504979 -0.676193,0.830177 -1.014509,1.244944 -0.165622,0.203048 -0.395975,0.332743 -0.643552,0.44291 -0.258146,0.11487 -0.535018,0.208511 -0.776759,0.341945 -0.473584,0.261403 -0.430251,0.198683 -0.645596,0.297704 -0.215345,0.09902 -0.504033,0.18064 -0.756269,0.270641 -0.252237,0.09 -0.528627,0.234768 -0.793161,0.351831 -0.264532,0.117062 -0.233498,0.153578 -0.368912,0.297704 -0.135414,0.144128 -0.08594,0.352048 -0.110673,0.460088 -0.02474,0.108043 0.110819,0.288897 0.166011,0.433025 0.05519,0.144127 0.393652,0.252812 0.590259,0.378895 0.196606,0.126085 0.737969,0.306939 1.106735,0.460089 0.368766,0.153147 0.676485,0.270854 1.014508,0.405959 0.338023,0.135107 0.737969,0.469326 1.106735,0.703665 0.368767,0.23434 0.504327,0.487366 0.756271,0.73073 0.251942,0.243361 0.369057,0.703877 0.553367,1.055495 0.18431,0.351618 0.307572,0.992561 0.461141,1.488521 0.153567,0.495959 0.184602,0.99256 0.276683,1.488521 0.09208,0.495958 0.160007,0.992559 0.239793,1.48852 0.07979,0.495959 0.209196,0.721921 0.313574,1.082561 0.10438,0.360639 0.147712,0.379108 0.29513,0.568344 0.147418,0.189232 0.27683,-0.117064 0.350467,-0.162386 0.07364,-0.04532 0.141561,-0.261403 0.202901,-0.460088 0.06134,-0.198683 0.184602,-0.901918 0.276685,-1.299073 0.09208,-0.397151 0.196899,-1.064302 0.295129,-1.596775 0.09823,-0.532473 0.184601,-0.956048 0.276684,-1.434392 0.09208,-0.478344 0.295275,-0.90192 0.442695,-1.353199 0.147418,-0.451284 0.430542,-0.793666 0.645595,-1.190818 0.215053,-0.397153 0.596554,-0.613237 0.922279,-0.838985 0.325728,-0.225747 0.891684,-0.30651 1.309639,-0.541281 0.417954,-0.234769 0.811754,-0.324551 1.217407,-0.487151 0.405659,-0.162598 0.516624,-0.23434 0.774718,-0.351832 0.258094,-0.11749 0.196897,-0.234341 0.29513,-0.351834 0.09823,-0.11749 0.06163,-0.270425 0.09223,-0.405958 0.03059,-0.135536 -0.159717,-0.279447 -0.239791,-0.405961 -0.08008,-0.126512 -0.448697,-0.288467 -0.645599,-0.378896 -0.196897,-0.09043 -0.743827,-0.261405 -1.143628,-0.460088 C 71.10568,58.428189 70.989156,58.428619 70.730768,58.329169 70.472384,58.229719 70.189844,58.058743 69.919162,57.92321 69.648481,57.787674 69.513505,57.598657 69.310457,57.436057 69.107409,57.27346 68.818722,56.840862 68.572633,56.542945 68.326546,56.245026 68.191571,55.622985 68.00082,55.162681 67.81007,54.702379 67.779619,54.134463 67.6688,53.620033 67.557979,53.105602 67.447599,52.483558 67.336778,51.915 c -0.110819,-0.568559 -0.208904,-1.046261 -0.313574,-1.569713 -0.104672,-0.523452 -0.159716,-0.288468 -0.239793,-0.433025 -0.08008,-0.144555 -0.196607,-0.09 -0.295129,-0.135319 -0.09852,-0.04532 -0.208904,0.09043 -0.313576,0.135319 -0.104671,0.0449 -0.202755,0.487368 -0.276684,0.811922 -0.07393,0.324554 -0.05519,0.685836 -0.110674,0.94724 z"
       sodipodi:nodetypes="sssssssssssssssssssssssssssssssssssssssssssssssssssss" />
    <path
       style="fill:#000000;stroke:#000000;stroke-width:0.224196px;stroke-linecap:butt;stroke-linejoin:miter;stroke-opacity:1"
       d="m 72.821035,21.586915 c -0.08801,0.670573 -0.18227,1.340726 -0.311841,2.004522 -0.125074,0.640754 -0.282896,1.274751 -0.455767,1.904294 -0.17662,0.643195 -0.371462,1.287963 -0.695642,1.870888 -0.33019,0.593733 -0.789671,1.111349 -1.319328,1.5368 -0.26028,0.209072 -0.538495,0.397065 -0.836913,0.546743 -0.326299,0.163663 -0.673807,0.28021 -1.010142,0.422108 -0.281492,0.118761 -0.555369,0.255377 -0.839572,0.367496 -0.322123,0.127078 -0.655844,0.222036 -0.983497,0.334088 -0.353324,0.120831 -0.700268,0.261857 -1.031474,0.434312 -0.180399,0.09393 -0.361504,0.202015 -0.479755,0.367495 -0.115941,0.162248 -0.16085,0.369251 -0.143924,0.567948 0.01656,0.194456 0.09115,0.384448 0.215889,0.53454 0.193595,0.23294 0.486883,0.353994 0.767608,0.46772 0.478048,0.193664 0.954784,0.390987 1.439263,0.567949 0.442015,0.161451 0.891028,0.30618 1.319326,0.501129 0.510952,0.232571 0.98795,0.534746 1.439265,0.868627 0.358635,0.265317 0.704669,0.553803 0.983499,0.902036 0.311198,0.388657 0.531045,0.842141 0.71963,1.302938 0.244231,0.596764 0.440409,1.212656 0.599696,1.837479 0.154258,0.605098 0.274064,1.218943 0.359814,1.837478 0.0854,0.616023 0.137801,1.240412 0.311841,1.837478 0.130463,0.447569 0.328548,0.876936 0.407791,1.336348 0.02414,0.139941 0.03751,0.28357 0.09052,0.415314 0.0265,0.06587 0.06305,0.128321 0.112351,0.17942 0.0493,0.0511 0.111835,0.0905 0.180931,0.106848 0.08516,0.02015 0.176513,0.0042 0.255091,-0.03429 0.07858,-0.03853 0.14517,-0.0985 0.200676,-0.166162 0.133314,-0.16251 0.204027,-0.36645 0.263866,-0.567948 0.156026,-0.525388 0.255631,-1.065544 0.359817,-1.603617 0.127248,-0.657174 0.26174,-1.312955 0.383803,-1.971112 0.109852,-0.592317 0.209782,-1.187224 0.359816,-1.77066 0.146831,-0.570981 0.34137,-1.129447 0.575707,-1.670433 0.224931,-0.519273 0.488721,-1.025975 0.839569,-1.469984 0.329591,-0.417108 0.735567,-0.7759 1.199387,-1.03567 0.532829,-0.29842 1.128625,-0.46104 1.70313,-0.668175 0.531113,-0.19149 1.047652,-0.422622 1.583192,-0.601355 0.348566,-0.116332 0.713062,-0.214434 1.007485,-0.434313 0.155905,-0.116432 0.287854,-0.265032 0.383803,-0.434315 0.08624,-0.152155 0.144045,-0.327901 0.11994,-0.501128 -0.01386,-0.0996 -0.05441,-0.194403 -0.109955,-0.278226 -0.05555,-0.08382 -0.125841,-0.157108 -0.201886,-0.222905 -0.243339,-0.210547 -0.542492,-0.344078 -0.839571,-0.467722 -0.48998,-0.203929 -0.987525,-0.389198 -1.487241,-0.567948 -0.336599,-0.120402 -0.674317,-0.237898 -1.007484,-0.367495 -0.363456,-0.141379 -0.722678,-0.2978 -1.055462,-0.501129 -0.283177,-0.17302 -0.545329,-0.378921 -0.791595,-0.601358 -0.362554,-0.327473 -0.692918,-0.693082 -0.95951,-1.102487 -0.339394,-0.521207 -0.570995,-1.10631 -0.74362,-1.703843 -0.180699,-0.62548 -0.298715,-1.266979 -0.431778,-1.904295 -0.146387,-0.701131 -0.311333,-1.398698 -0.431781,-2.104748 -0.111163,-0.651622 -0.185609,-1.315125 -0.40779,-1.937704 -0.07004,-0.19625 -0.158607,-0.393338 -0.311842,-0.534539 -0.104877,-0.09664 -0.241225,-0.163833 -0.383802,-0.167043 -0.150531,-0.0034 -0.297077,0.065 -0.407793,0.167043 -0.133522,0.123065 -0.218401,0.291511 -0.269308,0.465814 -0.05091,0.174303 -0.07026,0.355995 -0.09051,0.536447 -0.0438,0.390265 -0.09282,0.779928 -0.143926,1.169304 z"
       id="path62-6"
       inkscape:path-effect="#path-effect105"
       inkscape:original-d="m 72.821035,21.586915 c -0.07215,0.322686 -0.207703,1.336612 -0.311841,2.004522 -0.104136,0.667909 -0.303653,1.269794 -0.455767,1.904294 -0.152111,0.6345 -0.463571,1.247524 -0.695642,1.870888 -0.232072,0.623363 -0.879361,1.024798 -1.319328,1.5368 -0.215384,0.25065 -0.514949,0.410749 -0.836913,0.546743 -0.335708,0.1418 -0.695768,0.257393 -1.010142,0.422108 -0.615877,0.322685 -0.559524,0.245261 -0.839572,0.367496 -0.280047,0.122235 -0.655474,0.222988 -0.983497,0.334088 -0.328023,0.111097 -0.687459,0.289805 -1.031474,0.434312 -0.344012,0.144505 -0.303653,0.189581 -0.479755,0.367495 -0.176099,0.177916 -0.111756,0.434579 -0.143924,0.567948 -0.03218,0.133371 0.144115,0.356624 0.215889,0.53454 0.07177,0.177915 0.511928,0.312079 0.767608,0.46772 0.255678,0.155644 0.959698,0.378896 1.439263,0.567949 0.479565,0.18905 0.879742,0.334351 1.319326,0.501129 0.439586,0.16678 0.9597,0.579351 1.439265,0.868627 0.479566,0.289277 0.655856,0.60162 0.983499,0.902036 0.327641,0.300413 0.479944,0.868889 0.71963,1.302938 0.239689,0.434049 0.399986,1.225249 0.599696,1.837479 0.199707,0.612227 0.240067,1.225248 0.359814,1.837478 0.11975,0.612227 0.208084,1.225248 0.311841,1.837478 0.103758,0.612228 0.272051,0.891162 0.407791,1.336348 0.135741,0.445185 0.192093,0.467984 0.383804,0.701582 0.191711,0.233595 0.360006,-0.144507 0.455767,-0.200454 0.09576,-0.05595 0.184096,-0.322684 0.263866,-0.567948 0.07977,-0.24526 0.240067,-1.113357 0.359817,-1.603617 0.119747,-0.490257 0.256059,-1.313809 0.383803,-1.971112 0.127745,-0.657302 0.240067,-1.180176 0.359816,-1.77066 0.119748,-0.590483 0.383993,-1.113359 0.575707,-1.670433 0.191712,-0.557079 0.559902,-0.979727 0.839569,-1.469984 0.279668,-0.490259 0.775795,-0.757 1.199387,-1.03567 0.423595,-0.27867 1.159599,-0.378366 1.70313,-0.668175 0.543533,-0.289806 1.055652,-0.400636 1.583192,-0.601355 0.527541,-0.200716 0.671846,-0.289277 1.007485,-0.434313 0.33564,-0.145034 0.256059,-0.289278 0.383803,-0.434315 0.127745,-0.145034 0.08015,-0.333822 0.11994,-0.501128 0.03979,-0.16731 -0.207704,-0.344959 -0.311841,-0.501131 -0.104136,-0.156171 -0.583512,-0.356094 -0.839571,-0.467722 -0.256059,-0.111627 -0.967316,-0.322687 -1.487241,-0.567948 -0.519924,-0.245261 -0.671466,-0.244731 -1.007484,-0.367495 -0.336019,-0.122762 -0.703451,-0.333823 -1.055462,-0.501129 -0.352009,-0.16731 -0.52754,-0.40064 -0.791595,-0.601358 -0.264055,-0.200716 -0.639482,-0.734727 -0.95951,-1.102487 -0.320026,-0.367761 -0.495556,-1.135629 -0.74362,-1.703843 -0.248062,-0.568212 -0.287663,-1.269266 -0.431778,-1.904295 -0.144118,-0.63503 -0.287663,-1.402901 -0.431781,-2.104748 -0.144115,-0.701847 -0.271671,-1.291538 -0.40779,-1.937704 -0.136122,-0.646166 -0.207704,-0.356094 -0.311842,-0.534539 -0.104137,-0.178444 -0.255678,-0.111097 -0.383802,-0.167043 -0.128126,-0.05595 -0.271672,0.111627 -0.407793,0.167043 -0.13612,0.05542 -0.263675,0.601621 -0.359817,1.002261 -0.09614,0.40064 -0.07177,0.846618 -0.143926,1.169304 z"
       sodipodi:nodetypes="sssssssssssssssssssssssssssssssssssssssssssssssssssss" />
    <path
       style="fill:#000000;stroke:#000000;stroke-width:0.0346205px;stroke-linecap:butt;stroke-linejoin:miter;stroke-opacity:1"
       d="m 90.583534,36.889128 c -0.0098,0.120574 -0.02355,0.240821 -0.04135,0.360473 -0.01706,0.114664 -0.03779,0.228758 -0.06044,0.342449 -0.02276,0.114235 -0.04769,0.228819 -0.09224,0.336441 -0.04191,0.101244 -0.101077,0.195427 -0.174946,0.276362 -0.03339,0.03659 -0.06992,0.0706 -0.110976,0.09832 -0.04255,0.02873 -0.08942,0.05036 -0.133948,0.07591 -0.03744,0.02148 -0.07326,0.04575 -0.111329,0.06609 -0.04223,0.02256 -0.08691,0.0401 -0.130414,0.06008 -0.04779,0.02195 -0.09439,0.04696 -0.136775,0.0781 -0.02484,0.01825 -0.04865,0.03915 -0.06362,0.06609 -0.01705,0.0307 -0.02132,0.06709 -0.01909,0.102134 0.0021,0.03373 0.01029,0.06773 0.02863,0.09613 0.02411,0.03734 0.06337,0.06176 0.101786,0.08411 0.06238,0.03629 0.126022,0.07042 0.19085,0.102134 0.05895,0.02884 0.119032,0.05576 0.174946,0.09012 0.07021,0.04315 0.132985,0.09753 0.190849,0.156205 0.04883,0.04952 0.09463,0.102583 0.130414,0.162213 0.04351,0.0725 0.07138,0.153235 0.09542,0.234307 0.03222,0.108658 0.05813,0.219134 0.07952,0.330433 0.02101,0.109333 0.03767,0.219555 0.04771,0.330434 0.01003,0.110696 0.01359,0.222807 0.04135,0.330433 0.02059,0.0798 0.05455,0.157901 0.05407,0.240315 -1.45e-4,0.02508 -0.0035,0.05058 0.0023,0.07499 0.0029,0.01221 0.0081,0.02403 0.01638,0.03346 0.0083,0.0094 0.01977,0.0163 0.03223,0.01772 0.01227,0.0014 0.02478,-0.0025 0.03508,-0.0094 0.0103,-0.0068 0.01854,-0.01638 0.02535,-0.02669 0.01996,-0.03023 0.02797,-0.06659 0.03499,-0.102134 0.01888,-0.0956 0.03337,-0.191997 0.04771,-0.288378 0.01757,-0.118068 0.03491,-0.236171 0.05089,-0.354465 0.01436,-0.106373 0.02763,-0.212973 0.04771,-0.318417 0.01934,-0.101551 0.04498,-0.201889 0.07634,-0.300394 0.02906,-0.09129 0.06325,-0.18148 0.111328,-0.264347 0.04125,-0.0711 0.09322,-0.137015 0.159042,-0.186244 0.06841,-0.05117 0.149119,-0.08259 0.225839,-0.120158 0.0707,-0.03463 0.138606,-0.07483 0.209935,-0.108141 0.04699,-0.02195 0.09665,-0.04169 0.133594,-0.0781 0.02228,-0.02196 0.03894,-0.04919 0.05089,-0.0781 0.01177,-0.02849 0.01917,-0.05947 0.01591,-0.09012 -0.0035,-0.03336 -0.01963,-0.06454 -0.04135,-0.09012 -0.03026,-0.03564 -0.07075,-0.06089 -0.111329,-0.08411 -0.06427,-0.03677 -0.130537,-0.06993 -0.197211,-0.102134 -0.04474,-0.02161 -0.0897,-0.04281 -0.133595,-0.06609 -0.04911,-0.02604 -0.09704,-0.0548 -0.139957,-0.09012 -0.03885,-0.03198 -0.07325,-0.06907 -0.104967,-0.108142 -0.0496,-0.0611 -0.09295,-0.127419 -0.127233,-0.19826 -0.04685,-0.09682 -0.07637,-0.201166 -0.09861,-0.306402 -0.02393,-0.113251 -0.03966,-0.228042 -0.05726,-0.342449 -0.0194,-0.126122 -0.04108,-0.251919 -0.05725,-0.378496 -0.0149,-0.116679 -0.02519,-0.234429 -0.05407,-0.348457 -0.0086,-0.03408 -0.01938,-0.06868 -0.04135,-0.09613 -0.0064,-0.0079 -0.01365,-0.01524 -0.02223,-0.02071 -0.0086,-0.0055 -0.01849,-0.0091 -0.02866,-0.0093 -0.01067,-2.6e-4 -0.02124,0.0032 -0.03037,0.0087 -0.0091,0.0055 -0.01691,0.01308 -0.0237,0.02132 -0.0201,0.02443 -0.03168,0.05493 -0.03804,0.08592 -0.0064,0.03099 -0.0078,0.06274 -0.0097,0.09432 -0.0042,0.07027 -0.01053,0.140406 -0.01909,0.210275 z"
       id="path62-66"
       inkscape:path-effect="#path-effect114"
       inkscape:original-d="m 90.583534,36.889128 c -0.0096,0.05803 -0.02754,0.240363 -0.04135,0.360473 -0.01381,0.12011 -0.04027,0.228347 -0.06044,0.342449 -0.02017,0.114102 -0.06147,0.224342 -0.09224,0.336441 -0.03077,0.112099 -0.116605,0.184289 -0.174946,0.276362 -0.02856,0.04508 -0.06828,0.07386 -0.110976,0.09832 -0.04452,0.0255 -0.09226,0.04629 -0.133948,0.07591 -0.08167,0.05803 -0.07419,0.0441 -0.111329,0.06609 -0.03713,0.02198 -0.08692,0.0401 -0.130414,0.06008 -0.0435,0.01998 -0.09116,0.05212 -0.136775,0.0781 -0.04562,0.02599 -0.04026,0.03409 -0.06362,0.06609 -0.02335,0.032 -0.01482,0.07815 -0.01909,0.102134 -0.0043,0.02398 0.01911,0.06413 0.02863,0.09613 0.0095,0.032 0.06788,0.05612 0.101786,0.08411 0.0339,0.02799 0.127259,0.06814 0.19085,0.102134 0.06359,0.034 0.116656,0.06013 0.174946,0.09012 0.05829,0.02999 0.127258,0.104185 0.190849,0.156205 0.06359,0.05202 0.08697,0.108189 0.130414,0.162213 0.04345,0.05402 0.06364,0.156252 0.09542,0.234307 0.03178,0.07805 0.05304,0.220336 0.07952,0.330433 0.02648,0.110097 0.03183,0.220337 0.04771,0.330434 0.01588,0.110096 0.02759,0.220336 0.04135,0.330433 0.01376,0.110097 0.03608,0.160257 0.05407,0.240315 0.018,0.08006 0.02547,0.08416 0.05089,0.126165 0.02542,0.04201 0.04774,-0.02599 0.06043,-0.03605 0.0127,-0.01006 0.02441,-0.05803 0.03499,-0.102134 0.01058,-0.04411 0.03183,-0.200215 0.04771,-0.288378 0.01588,-0.08816 0.03395,-0.236262 0.05089,-0.354465 0.01694,-0.118202 0.03183,-0.212231 0.04771,-0.318417 0.01588,-0.106187 0.05092,-0.200215 0.07634,-0.300394 0.02542,-0.100179 0.07424,-0.176184 0.111328,-0.264347 0.03709,-0.08816 0.102872,-0.136131 0.159042,-0.186244 0.05617,-0.05011 0.153766,-0.06804 0.225839,-0.120158 0.07207,-0.05212 0.139981,-0.07205 0.209935,-0.108141 0.06995,-0.03609 0.08909,-0.05202 0.133594,-0.0781 0.04451,-0.02608 0.03395,-0.05202 0.05089,-0.0781 0.01694,-0.02608 0.01063,-0.06003 0.01591,-0.09012 0.0053,-0.03009 -0.02754,-0.06203 -0.04135,-0.09012 -0.01381,-0.02808 -0.07738,-0.06404 -0.111329,-0.08411 -0.03395,-0.02007 -0.128268,-0.05803 -0.197211,-0.102134 -0.06894,-0.04411 -0.08904,-0.04401 -0.133595,-0.06609 -0.04456,-0.02208 -0.09328,-0.06003 -0.139957,-0.09012 -0.04668,-0.03009 -0.06995,-0.07205 -0.104967,-0.108142 -0.03501,-0.0361 -0.0848,-0.132126 -0.127233,-0.19826 -0.04244,-0.06613 -0.06571,-0.20422 -0.09861,-0.306402 -0.03289,-0.102181 -0.03815,-0.228251 -0.05726,-0.342449 -0.01911,-0.114197 -0.03815,-0.252283 -0.05725,-0.378496 -0.01911,-0.126213 -0.03602,-0.232257 -0.05407,-0.348457 -0.01805,-0.1162 -0.02754,-0.06404 -0.04135,-0.09613 -0.01381,-0.03209 -0.0339,-0.01998 -0.05089,-0.03004 -0.01699,-0.01006 -0.03602,0.02007 -0.05407,0.03004 -0.01805,0.01 -0.03496,0.10819 -0.04771,0.180237 -0.01275,0.07205 -0.0095,0.152247 -0.01909,0.210275 z"
       sodipodi:nodetypes="sssssssssssssssssssssssssssssssssssssssssssssssssssss" />
    <path
       style="fill:#000000;stroke:#000000;stroke-width:0.0686548px;stroke-linecap:butt;stroke-linejoin:miter;stroke-opacity:1"
       d="m 83.833581,44.335559 c -0.02187,0.214155 -0.05248,0.427418 -0.09172,0.639079 -0.03779,0.20381 -0.08357,0.406082 -0.134056,0.607124 -0.05131,0.204336 -0.108145,0.409178 -0.204613,0.596474 -0.09597,0.186324 -0.230109,0.352198 -0.388058,0.48996 -0.07593,0.06622 -0.157615,0.126257 -0.246164,0.174311 -0.09559,0.05188 -0.198219,0.08932 -0.297118,0.134576 -0.08286,0.03791 -0.163164,0.08134 -0.246946,0.117165 -0.0945,0.04041 -0.192871,0.07091 -0.28928,0.106513 -0.104401,0.03856 -0.206774,0.08323 -0.303391,0.138467 -0.05357,0.03063 -0.106785,0.06589 -0.141112,0.117164 -0.03514,0.05248 -0.04733,0.11811 -0.04233,0.181072 0.0049,0.06129 0.02579,0.12186 0.0635,0.170421 0.05592,0.072 0.142536,0.111953 0.225779,0.149118 0.140157,0.06258 0.280551,0.124754 0.423337,0.181073 0.130176,0.05135 0.262539,0.09791 0.388058,0.159769 0.151558,0.07469 0.291676,0.171035 0.423336,0.276934 0.106242,0.08546 0.208024,0.178099 0.28928,0.287586 0.09292,0.125209 0.156809,0.269446 0.211668,0.415401 0.0718,0.191025 0.129442,0.387224 0.176391,0.585822 0.04568,0.193206 0.08127,0.388816 0.105833,0.585822 0.02448,0.196354 0.03824,0.39531 0.09172,0.585821 0.03993,0.142266 0.101892,0.279395 0.119945,0.426053 0.0055,0.04454 0.007,0.0902 0.02196,0.132497 0.0075,0.02115 0.01842,0.04131 0.03374,0.0577 0.01532,0.01639 0.03522,0.02888 0.05718,0.03348 0.02556,0.0054 0.05268,-2.58e-4 0.07574,-0.0125 0.02306,-0.01225 0.04233,-0.03077 0.05832,-0.05141 0.0405,-0.05227 0.06054,-0.117192 0.07761,-0.181073 0.04495,-0.168184 0.07492,-0.339942 0.105834,-0.511262 0.0378,-0.209446 0.07711,-0.418627 0.112889,-0.628427 0.0322,-0.188763 0.06157,-0.378215 0.105834,-0.564519 0.0431,-0.181397 0.100232,-0.359398 0.169335,-0.532565 0.06562,-0.164439 0.142647,-0.325593 0.246946,-0.468658 0.09551,-0.131009 0.214084,-0.246235 0.35278,-0.330191 0.15547,-0.09411 0.331684,-0.146865 0.500948,-0.213026 0.156362,-0.06112 0.307941,-0.134222 0.46567,-0.191723 0.102957,-0.03753 0.210977,-0.06974 0.296336,-0.138467 0.04672,-0.03761 0.08512,-0.08531 0.112889,-0.138468 0.02566,-0.04911 0.04248,-0.10483 0.03528,-0.159769 -0.0081,-0.06211 -0.04613,-0.116813 -0.09172,-0.159769 -0.07032,-0.06626 -0.158903,-0.109322 -0.246947,-0.149119 -0.143824,-0.06501 -0.290272,-0.124053 -0.437447,-0.181072 -0.09905,-0.03837 -0.198475,-0.07585 -0.296336,-0.117164 -0.107375,-0.04533 -0.213224,-0.09549 -0.310446,-0.159769 -0.08399,-0.05553 -0.160939,-0.121227 -0.232835,-0.191724 -0.107575,-0.105482 -0.204508,-0.222424 -0.282224,-0.351494 -0.101028,-0.167786 -0.168387,-0.353941 -0.218724,-0.543216 -0.05315,-0.199857 -0.0879,-0.404049 -0.127001,-0.607124 -0.04304,-0.223558 -0.09143,-0.446165 -0.127001,-0.671033 -0.03281,-0.207449 -0.055,-0.418042 -0.119945,-0.617776 -0.02014,-0.06195 -0.04555,-0.124473 -0.09172,-0.17042 -0.03022,-0.03007 -0.07027,-0.05229 -0.112889,-0.05326 -0.02247,-5.1e-4 -0.04489,0.0049 -0.06525,0.01441 -0.02036,0.0095 -0.03869,0.02308 -0.05469,0.03885 -0.04085,0.04025 -0.0661,0.09412 -0.08082,0.149546 -0.01472,0.05542 -0.01964,0.112899 -0.02501,0.169993 -0.01171,0.124522 -0.02582,0.248818 -0.04233,0.372795 z"
       id="path62-8"
       inkscape:path-effect="#path-effect123"
       inkscape:original-d="m 83.833581,44.335559 c -0.02122,0.102879 -0.06109,0.426137 -0.09172,0.639079 -0.03063,0.212942 -0.08931,0.404834 -0.134056,0.607124 -0.04474,0.20229 -0.136353,0.397734 -0.204613,0.596474 -0.06826,0.198739 -0.258649,0.326724 -0.388058,0.48996 -0.06335,0.07991 -0.151464,0.130954 -0.246164,0.174311 -0.09874,0.04521 -0.20465,0.08206 -0.297118,0.134576 -0.18115,0.102878 -0.164575,0.07819 -0.246946,0.117165 -0.08237,0.03897 -0.192797,0.07109 -0.28928,0.106513 -0.09648,0.03542 -0.202204,0.09239 -0.303391,0.138467 -0.101186,0.04607 -0.08931,0.06044 -0.141112,0.117164 -0.0518,0.05672 -0.03287,0.138552 -0.04233,0.181072 -0.0095,0.04252 0.04239,0.113699 0.0635,0.170421 0.02111,0.05672 0.150576,0.0995 0.225779,0.149118 0.0752,0.04962 0.28228,0.120799 0.423337,0.181073 0.141056,0.06027 0.258761,0.106597 0.388058,0.159769 0.129297,0.05317 0.28228,0.184708 0.423336,0.276934 0.141057,0.09223 0.19291,0.191808 0.28928,0.287586 0.09637,0.09578 0.141168,0.277018 0.211668,0.415401 0.0705,0.138382 0.117649,0.390632 0.176391,0.585822 0.05874,0.195189 0.07061,0.390631 0.105833,0.585822 0.03522,0.195189 0.06121,0.390631 0.09172,0.585821 0.03052,0.19519 0.08002,0.284119 0.119945,0.426053 0.03993,0.141933 0.0565,0.149202 0.11289,0.223677 0.05639,0.07447 0.10589,-0.04607 0.134057,-0.06391 0.02817,-0.01784 0.05415,-0.102878 0.07761,-0.181073 0.02346,-0.07819 0.07061,-0.354958 0.105834,-0.511262 0.03522,-0.156303 0.07532,-0.418867 0.112889,-0.628427 0.03757,-0.20956 0.07061,-0.376262 0.105834,-0.564519 0.03522,-0.188257 0.112946,-0.354959 0.169335,-0.532565 0.05639,-0.177607 0.164686,-0.312355 0.246946,-0.468658 0.08226,-0.156304 0.228187,-0.241345 0.35278,-0.330191 0.124594,-0.08885 0.341077,-0.12063 0.500948,-0.213026 0.159872,-0.0924 0.310503,-0.12773 0.46567,-0.191723 0.155168,-0.06399 0.197613,-0.09223 0.296336,-0.138467 0.09872,-0.04624 0.07532,-0.09223 0.112889,-0.138468 0.03758,-0.04624 0.02358,-0.106428 0.03528,-0.159769 0.01171,-0.05334 -0.06109,-0.109979 -0.09172,-0.159769 -0.03063,-0.04979 -0.171631,-0.11353 -0.246947,-0.149119 -0.07532,-0.03559 -0.28452,-0.102878 -0.437447,-0.181072 -0.152928,-0.07819 -0.197501,-0.07803 -0.296336,-0.117164 -0.09883,-0.03914 -0.206908,-0.106429 -0.310446,-0.159769 -0.103538,-0.05334 -0.155168,-0.127732 -0.232835,-0.191724 -0.07767,-0.06399 -0.188094,-0.234245 -0.282224,-0.351494 -0.09413,-0.117249 -0.14576,-0.362059 -0.218724,-0.543216 -0.07296,-0.181157 -0.08461,-0.404665 -0.127001,-0.607124 -0.04239,-0.20246 -0.08461,-0.447271 -0.127001,-0.671033 -0.04239,-0.223762 -0.07991,-0.411766 -0.119945,-0.617776 -0.04004,-0.206009 -0.06109,-0.113529 -0.09172,-0.17042 -0.03063,-0.05689 -0.0752,-0.03542 -0.112889,-0.05326 -0.03769,-0.01784 -0.07991,0.03559 -0.119946,0.05326 -0.04004,0.01767 -0.07756,0.191807 -0.105834,0.319539 -0.02828,0.127731 -0.02111,0.269917 -0.04233,0.372795 z"
       sodipodi:nodetypes="sssssssssssssssssssssssssssssssssssssssssssssssssssss" />
    <path
       style="fill:#000000;stroke:#000000;stroke-width:0.107811px;stroke-linecap:butt;stroke-linejoin:miter;stroke-opacity:1"
       d="m 54.928954,17.024534 c -0.02954,0.385371 -0.07138,0.7698 -0.125423,1.152505 -0.05175,0.366437 -0.114671,0.731227 -0.18331,1.094879 -0.06882,0.364621 -0.144032,0.730339 -0.279789,1.075672 -0.126298,0.321273 -0.304798,0.622501 -0.530635,0.883586 -0.100678,0.116392 -0.211161,0.225208 -0.336607,0.314352 -0.128641,0.09141 -0.271266,0.160985 -0.406281,0.242692 -0.113612,0.06875 -0.221943,0.146173 -0.337677,0.211292 -0.127777,0.0719 -0.263579,0.128242 -0.395564,0.192085 -0.14557,0.07041 -0.287224,0.150421 -0.41486,0.249709 -0.07586,0.05901 -0.147894,0.126405 -0.192958,0.211292 -0.0525,0.09889 -0.06459,0.214788 -0.05788,0.326543 0.0064,0.107362 0.03026,0.215859 0.08683,0.307336 0.07246,0.117173 0.191549,0.196472 0.308733,0.268916 0.188488,0.116525 0.381854,0.22511 0.578874,0.326544 0.179034,0.09217 0.361578,0.178724 0.530635,0.288126 0.214495,0.138806 0.404486,0.312699 0.578874,0.499418 0.148742,0.15926 0.287538,0.32937 0.395564,0.518628 0.133046,0.233093 0.216954,0.49071 0.289437,0.749128 0.09759,0.347918 0.176112,0.701029 0.241198,1.056463 0.06405,0.349769 0.115139,0.70211 0.144718,1.056463 0.02954,0.353882 0.03803,0.712272 0.125424,1.056462 0.06473,0.254946 0.173025,0.505455 0.164013,0.768336 -0.0027,0.08022 -0.01644,0.161501 1.13e-4,0.240047 0.0083,0.03927 0.02441,0.07747 0.05076,0.107748 0.02635,0.03027 0.06351,0.05207 0.10349,0.05558 0.03784,0.0033 0.07596,-0.0098 0.107109,-0.03153 0.03114,-0.02175 0.05583,-0.05166 0.0762,-0.08372 0.06178,-0.09724 0.08532,-0.213238 0.106127,-0.326543 0.0562,-0.306002 0.100914,-0.613984 0.144719,-0.922004 0.05368,-0.377459 0.106019,-0.755116 0.154366,-1.133295 0.04347,-0.340035 0.08375,-0.680708 0.144719,-1.018045 0.0586,-0.324239 0.136278,-0.645002 0.23155,-0.96042 0.08788,-0.290956 0.191357,-0.578769 0.337676,-0.845171 0.123816,-0.225431 0.280125,-0.436602 0.482395,-0.595461 0.206266,-0.161997 0.451973,-0.263808 0.685001,-0.384169 0.214612,-0.110849 0.420295,-0.238571 0.636763,-0.34575 0.142965,-0.07079 0.294213,-0.135129 0.405211,-0.24971 0.06854,-0.07075 0.118541,-0.157949 0.154366,-0.24971 0.03575,-0.09157 0.05807,-0.190319 0.04824,-0.288125 -0.01062,-0.105697 -0.05869,-0.205473 -0.125423,-0.288127 -0.09087,-0.112547 -0.213922,-0.194039 -0.337681,-0.268918 -0.194404,-0.117622 -0.395649,-0.223522 -0.59817,-0.326543 -0.135783,-0.06907 -0.272261,-0.136915 -0.405212,-0.211292 -0.149513,-0.08364 -0.295037,-0.175931 -0.424508,-0.288125 -0.118602,-0.102776 -0.222688,-0.221366 -0.318381,-0.345753 -0.151155,-0.196478 -0.282395,-0.408634 -0.385916,-0.633878 -0.142906,-0.310941 -0.231919,-0.644076 -0.299085,-0.979628 -0.07254,-0.362383 -0.120289,-0.729181 -0.173662,-1.094879 -0.05885,-0.403251 -0.124607,-0.805571 -0.173663,-1.210131 -0.04521,-0.372877 -0.07645,-0.748828 -0.164013,-1.114087 -0.02599,-0.108393 -0.05824,-0.218395 -0.125424,-0.307334 -0.01891,-0.02503 -0.04062,-0.04829 -0.06658,-0.06589 -0.02596,-0.01761 -0.05643,-0.02937 -0.08779,-0.03016 -0.03287,-8.21e-4 -0.06533,0.01047 -0.09299,0.02826 -0.02766,0.01779 -0.05082,0.04184 -0.07102,0.06779 -0.06186,0.07944 -0.09702,0.17695 -0.11616,0.275802 -0.01914,0.09885 -0.02315,0.199906 -0.02856,0.300449 -0.01208,0.224642 -0.03139,0.448895 -0.05788,0.672295 z"
       id="path62-0"
       inkscape:path-effect="#path-effect132"
       inkscape:original-d="m 54.928954,17.024534 c -0.02902,0.185529 -0.08354,0.768489 -0.125423,1.152505 -0.04189,0.384016 -0.12213,0.730072 -0.18331,1.094879 -0.06118,0.364807 -0.186449,0.717267 -0.279789,1.075672 -0.09334,0.358404 -0.35368,0.589209 -0.530635,0.883586 -0.08663,0.144112 -0.207113,0.236162 -0.336607,0.314352 -0.135023,0.08152 -0.27984,0.147988 -0.406281,0.242692 -0.247707,0.185529 -0.225042,0.141014 -0.337677,0.211292 -0.112636,0.07028 -0.263633,0.128208 -0.395564,0.192085 -0.131932,0.06388 -0.276497,0.166624 -0.41486,0.249709 -0.138362,0.08308 -0.12213,0.109 -0.192958,0.211292 -0.07082,0.102294 -0.04494,0.249863 -0.05788,0.326543 -0.01294,0.07668 0.05796,0.205042 0.08683,0.307336 0.02887,0.102292 0.205898,0.17943 0.308733,0.268916 0.102835,0.08949 0.385992,0.217847 0.578874,0.326544 0.192881,0.108694 0.353833,0.192235 0.530635,0.288126 0.176801,0.09589 0.385993,0.333099 0.578874,0.499418 0.192882,0.166321 0.263786,0.345903 0.395564,0.518628 0.131778,0.172724 0.193035,0.49957 0.289437,0.749128 0.0964,0.249557 0.160875,0.70446 0.241198,1.056463 0.08032,0.352002 0.09656,0.704459 0.144718,1.056463 0.04816,0.352 0.08369,0.704459 0.125424,1.056462 0.04173,0.352002 0.109418,0.512375 0.164013,0.768336 0.0546,0.255961 0.07726,0.269069 0.154367,0.403377 0.07711,0.134306 0.144794,-0.08308 0.18331,-0.115252 0.03851,-0.03217 0.07404,-0.185527 0.106127,-0.326543 0.03208,-0.141012 0.09656,-0.640128 0.144719,-0.922004 0.04816,-0.281874 0.102987,-0.755377 0.154366,-1.133295 0.05138,-0.377917 0.09655,-0.678545 0.144719,-1.018045 0.04816,-0.3395 0.154443,-0.640129 0.23155,-0.96042 0.07711,-0.320294 0.225193,-0.563297 0.337676,-0.845171 0.112482,-0.281876 0.312026,-0.435239 0.482395,-0.595461 0.170371,-0.160222 0.466392,-0.217542 0.685001,-0.384169 0.21861,-0.166624 0.424585,-0.230347 0.636763,-0.34575 0.212177,-0.115403 0.270216,-0.166321 0.405211,-0.24971 0.134994,-0.08339 0.102987,-0.166321 0.154366,-0.24971 0.05138,-0.08339 0.03223,-0.191932 0.04824,-0.288125 0.01601,-0.09619 -0.08354,-0.198335 -0.125423,-0.288127 -0.04189,-0.08979 -0.234694,-0.204737 -0.337681,-0.268918 -0.102987,-0.06418 -0.389056,-0.185529 -0.59817,-0.326543 -0.209115,-0.141013 -0.270065,-0.140709 -0.405212,-0.211292 -0.135148,-0.07058 -0.282929,-0.191932 -0.424508,-0.288125 -0.141579,-0.09619 -0.212177,-0.230349 -0.318381,-0.345753 -0.106203,-0.115401 -0.257201,-0.422433 -0.385916,-0.633878 -0.128715,-0.211444 -0.199314,-0.652932 -0.299085,-0.979628 -0.09977,-0.326695 -0.115698,-0.729767 -0.173662,-1.094879 -0.05796,-0.365113 -0.115698,-0.806602 -0.173663,-1.210131 -0.05796,-0.403528 -0.109266,-0.742572 -0.164013,-1.114087 -0.05475,-0.371515 -0.08354,-0.204737 -0.125424,-0.307334 -0.04189,-0.102598 -0.102834,-0.06388 -0.154366,-0.09605 -0.05153,-0.03217 -0.109267,0.06419 -0.164015,0.09605 -0.05475,0.03186 -0.10605,0.345903 -0.144718,0.576251 -0.03866,0.23035 -0.02887,0.486766 -0.05788,0.672295 z"
       sodipodi:nodetypes="sssssssssssssssssssssssssssssssssssssssssssssssssssss" />
    <path
       style="fill:#000000;stroke:#000000;stroke-width:0.0481388px;stroke-linecap:butt;stroke-linejoin:miter;stroke-opacity:1"
       d="m 67.391923,10.297861 c -0.01191,0.189377 -0.02886,0.378436 -0.05084,0.566909 -0.02099,0.180012 -0.04656,0.359466 -0.0743,0.538563 -0.02764,0.178452 -0.05762,0.357366 -0.113403,0.529115 -0.05012,0.154331 -0.121153,0.302308 -0.215073,0.43463 -0.03989,0.0562 -0.08411,0.109784 -0.136432,0.154627 -0.0515,0.04414 -0.110058,0.07916 -0.164672,0.119378 -0.04613,0.03397 -0.0895,0.0717 -0.136865,0.103934 -0.0513,0.03491 -0.106812,0.06307 -0.160327,0.09448 -0.06,0.03521 -0.117841,0.07478 -0.168149,0.12283 -0.03155,0.03014 -0.0604,0.0641 -0.07821,0.103933 -0.0223,0.04986 -0.02608,0.10607 -0.02346,0.160624 0.0025,0.0521 0.01089,0.105021 0.03519,0.151176 0.0285,0.05414 0.07662,0.09499 0.125134,0.132278 0.07517,0.05779 0.154124,0.110523 0.234625,0.160624 0.07293,0.04539 0.147405,0.08881 0.215074,0.141727 0.08944,0.06995 0.165634,0.155482 0.234626,0.245661 0.06114,0.07992 0.117216,0.16419 0.160328,0.255109 0.05534,0.116712 0.08852,0.242571 0.117313,0.368491 0.03929,0.171864 0.07098,0.345413 0.09776,0.519666 0.02649,0.172361 0.04821,0.345595 0.05866,0.519667 0.01044,0.174011 0.0098,0.350238 0.05084,0.519666 0.01516,0.06261 0.0359,0.123766 0.05087,0.18642 0.01497,0.06265 0.02414,0.127668 0.01561,0.191519 -0.0053,0.03959 -0.01734,0.07911 -0.01228,0.118725 0.0025,0.01981 0.0096,0.03941 0.02258,0.05458 0.0065,0.0076 0.01441,0.01399 0.02336,0.01843 0.0089,0.0044 0.01892,0.0069 0.0289,0.0067 0.01633,-2.92e-4 0.03204,-0.0076 0.0445,-0.01813 0.01247,-0.01056 0.02196,-0.02423 0.0298,-0.03856 0.02677,-0.0489 0.03525,-0.10542 0.04302,-0.160625 0.02125,-0.150949 0.04046,-0.302179 0.05866,-0.453526 0.02232,-0.185652 0.04312,-0.371486 0.06257,-0.55746 0.01748,-0.167168 0.03389,-0.334526 0.05866,-0.50077 0.02367,-0.15886 0.05497,-0.316586 0.09385,-0.472423 0.03536,-0.141742 0.07718,-0.282396 0.136865,-0.415734 0.04828,-0.107859 0.10933,-0.212059 0.195521,-0.292903 0.08181,-0.07673 0.182674,-0.129291 0.277641,-0.18897 0.08724,-0.05482 0.170247,-0.116215 0.258088,-0.170072 0.05859,-0.03592 0.120706,-0.06965 0.164238,-0.12283 0.02928,-0.03577 0.04865,-0.07874 0.06257,-0.122831 0.01445,-0.04576 0.02339,-0.09389 0.01955,-0.141726 -0.0041,-0.05058 -0.02251,-0.09963 -0.05083,-0.141728 -0.03559,-0.05291 -0.08568,-0.09425 -0.136865,-0.132278 -0.07784,-0.05783 -0.159861,-0.109797 -0.242447,-0.160625 -0.05518,-0.03396 -0.110685,-0.06746 -0.164238,-0.103933 -0.06153,-0.0419 -0.120638,-0.0879 -0.172059,-0.141727 -0.04924,-0.05154 -0.09098,-0.109804 -0.129044,-0.170072 -0.0622,-0.09848 -0.115034,-0.202927 -0.156417,-0.3118 -0.05895,-0.155086 -0.09436,-0.318151 -0.121224,-0.481872 -0.02932,-0.178674 -0.0487,-0.358804 -0.07039,-0.538564 -0.02394,-0.198367 -0.05071,-0.39642 -0.07039,-0.595254 -0.01814,-0.183203 -0.03032,-0.367499 -0.06648,-0.5480117 -0.0105,-0.052395 -0.02338,-0.1053388 -0.05084,-0.151176 -0.007,-0.011708 -0.01506,-0.023 -0.02548,-0.031818 -0.01042,-0.00882 -0.02345,-0.015048 -0.03709,-0.015422 -0.01424,-3.896e-4 -0.02814,0.00564 -0.03926,0.014554 -0.01111,0.00892 -0.01971,0.020577 -0.02722,0.032686 -0.02573,0.041487 -0.03987,0.089292 -0.04752,0.1375084 -0.0077,0.048216 -0.0091,0.097169 -0.01114,0.1459466 -0.0046,0.1104277 -0.01246,0.2207217 -0.02346,0.3306967 z"
       id="path62-3"
       inkscape:path-effect="#path-effect141"
       inkscape:original-d="m 67.391923,10.297861 c -0.01176,0.09126 -0.03386,0.378014 -0.05084,0.566909 -0.01698,0.188894 -0.0495,0.359116 -0.0743,0.538563 -0.0248,0.179446 -0.07557,0.352818 -0.113403,0.529115 -0.03783,0.176296 -0.143351,0.289828 -0.215073,0.43463 -0.03511,0.07089 -0.08395,0.116166 -0.136432,0.154627 -0.05473,0.0401 -0.113423,0.07279 -0.164672,0.119378 -0.100398,0.09126 -0.09121,0.06936 -0.136865,0.103934 -0.04565,0.03457 -0.106854,0.06306 -0.160327,0.09448 -0.05347,0.03142 -0.112068,0.08196 -0.168149,0.12283 -0.05608,0.04087 -0.0495,0.05362 -0.07821,0.103933 -0.02871,0.05032 -0.01822,0.122905 -0.02346,0.160624 -0.0052,0.03772 0.02349,0.100858 0.03519,0.151176 0.0117,0.05032 0.08345,0.08826 0.125134,0.132278 0.04168,0.04402 0.156448,0.107157 0.234625,0.160624 0.07818,0.05347 0.143414,0.09456 0.215074,0.141727 0.07166,0.04717 0.156448,0.163849 0.234626,0.245661 0.07818,0.08181 0.106916,0.170147 0.160328,0.255109 0.05341,0.08496 0.07824,0.245735 0.117313,0.368491 0.03907,0.122755 0.0652,0.346518 0.09776,0.519666 0.03256,0.173147 0.03914,0.346519 0.05866,0.519667 0.01952,0.173147 0.03392,0.346518 0.05084,0.519666 0.01691,0.173147 0.04435,0.252034 0.06648,0.377939 0.02213,0.125905 0.03131,0.132353 0.06257,0.198418 0.03125,0.06606 0.05869,-0.04087 0.0743,-0.05669 0.01561,-0.01582 0.03001,-0.09126 0.04302,-0.160625 0.013,-0.06936 0.03913,-0.314874 0.05866,-0.453526 0.01952,-0.138652 0.04174,-0.371565 0.06257,-0.55746 0.02082,-0.185895 0.03913,-0.333772 0.05866,-0.50077 0.01952,-0.166997 0.0626,-0.314874 0.09385,-0.472423 0.03125,-0.15755 0.09127,-0.277082 0.136865,-0.415734 0.04559,-0.138652 0.126468,-0.214091 0.195521,-0.292903 0.06905,-0.07881 0.189035,-0.107007 0.277641,-0.18897 0.08861,-0.08196 0.17209,-0.113305 0.258088,-0.170072 0.086,-0.05676 0.109523,-0.08181 0.164238,-0.12283 0.05472,-0.04102 0.04174,-0.08181 0.06257,-0.122831 0.02083,-0.04102 0.01307,-0.09441 0.01955,-0.141726 0.0065,-0.04732 -0.03386,-0.09756 -0.05083,-0.141728 -0.01698,-0.04417 -0.09512,-0.100708 -0.136865,-0.132278 -0.04174,-0.03157 -0.15769,-0.09126 -0.242447,-0.160625 -0.08476,-0.06936 -0.109461,-0.06921 -0.164238,-0.103933 -0.05478,-0.03472 -0.114675,-0.09441 -0.172059,-0.141727 -0.05738,-0.04732 -0.086,-0.113306 -0.129044,-0.170072 -0.04305,-0.05677 -0.104247,-0.207792 -0.156417,-0.3118 -0.05217,-0.104008 -0.08078,-0.321173 -0.121224,-0.481872 -0.04044,-0.160699 -0.04689,-0.358968 -0.07039,-0.538564 -0.02349,-0.179596 -0.04689,-0.396761 -0.07039,-0.595254 -0.02349,-0.198493 -0.04429,-0.365266 -0.06648,-0.5480117 -0.02219,-0.182745 -0.03386,-0.100709 -0.05084,-0.151176 -0.01698,-0.05047 -0.04168,-0.03142 -0.06257,-0.04724 -0.02089,-0.01582 -0.04429,0.03157 -0.06648,0.04724 -0.02219,0.01567 -0.04298,0.170148 -0.05866,0.283455 -0.01567,0.1133067 -0.0117,0.2394357 -0.02346,0.3306967 z"
       sodipodi:nodetypes="sssssssssssssssssssssssssssssssssssssssssssssssssssss" />
  </g>
</svg>
