<?xml version="1.0" encoding="UTF-8" standalone="no"?>
<svg
   xmlns:dc="http://purl.org/dc/elements/1.1/"
   xmlns:cc="http://creativecommons.org/ns#"
   xmlns:rdf="http://www.w3.org/1999/02/22-rdf-syntax-ns#"
   xmlns:svg="http://www.w3.org/2000/svg"
   xmlns="http://www.w3.org/2000/svg"
   xmlns:sodipodi="http://sodipodi.sourceforge.net/DTD/sodipodi-0.dtd"
   xmlns:inkscape="http://www.inkscape.org/namespaces/inkscape"
   width="400"
   height="400"
   viewBox="0 0 105.83333 105.83334"
   version="1.1"
   id="svg172"
   inkscape:export-filename="C:\Users\Kaja Dzielnicka\Desktop\studia\icons\sun.png"
   inkscape:export-xdpi="96"
   inkscape:export-ydpi="96"
   sodipodi:docname="storm.svg"
   inkscape:version="1.0.1 (3bc2e813f5, 2020-09-07)">
  <defs
     id="defs166">
    <inkscape:path-effect
       effect="spiro"
       id="path-effect472"
       is_visible="true"
       lpeversion="1" />
    <inkscape:path-effect
       effect="spiro"
       id="path-effect463"
       is_visible="true"
       lpeversion="1" />
    <inkscape:path-effect
       effect="spiro"
       id="path-effect444"
       is_visible="true"
       lpeversion="1" />
    <inkscape:path-effect
       effect="spiro"
       id="path-effect440"
       is_visible="true"
       lpeversion="1" />
    <inkscape:path-effect
       effect="spiro"
       id="path-effect424"
       is_visible="true"
       lpeversion="1" />
    <inkscape:path-effect
       effect="spiro"
       id="path-effect420"
       is_visible="true"
       lpeversion="1" />
  </defs>
  <sodipodi:namedview
     id="base"
     pagecolor="#ffffff"
     bordercolor="#666666"
     borderopacity="1.0"
     inkscape:pageopacity="0.0"
     inkscape:pageshadow="2"
     inkscape:zoom="1.8296357"
     inkscape:cx="82.385865"
     inkscape:cy="165.13343"
     inkscape:document-units="px"
     inkscape:current-layer="layer1"
     inkscape:document-rotation="0"
     showgrid="false"
     units="px"
     inkscape:snap-others="true"
     inkscape:snap-center="true"
     showguides="true"
     inkscape:guide-bbox="true"
     inkscape:window-width="1920"
     inkscape:window-height="991"
     inkscape:window-x="-9"
     inkscape:window-y="-9"
     inkscape:window-maximized="1" />
  <metadata
     id="metadata169">
    <rdf:RDF>
      <cc:Work
         rdf:about="">
        <dc:format>image/svg+xml</dc:format>
        <dc:type
           rdf:resource="http://purl.org/dc/dcmitype/StillImage" />
        <dc:title></dc:title>
      </cc:Work>
    </rdf:RDF>
  </metadata>
  <g
     inkscape:label="Layer 1"
     inkscape:groupmode="layer"
     id="layer1">
    <circle
       style="fill:#ffffff;stroke:#000000;stroke-width:0.377326"
       id="path174"
       cx="52.916668"
       cy="52.916668"
       r="52.728004" />
    <g
       id="g535"
       transform="matrix(1.1090745,0,0,1.1090745,4.7046769,-6.1666881)">
      <path
         style="fill:#1a1a1a;stroke:#000000;stroke-width:0.355768px;stroke-linecap:butt;stroke-linejoin:miter;stroke-opacity:1"
         d="m 21.253913,30.905513 c 0.869189,-1.483544 2.100055,-2.759718 3.574877,-3.643626 1.727876,-1.035572 3.760363,-1.516228 5.774799,-1.512447 1.970671,0.0037 3.962887,0.473275 5.637306,1.512447 0.845425,0.524685 1.601033,1.187168 2.26867,1.924934 0.576517,0.637075 1.089469,1.331643 1.528772,2.070052 0.928162,-1.092049 2.168837,-1.91543 3.535679,-2.346473 1.018588,-0.321219 2.117115,-0.425566 3.16239,-0.206242 1.341632,0.281507 2.563814,1.1122 3.299886,2.26867 0.822167,1.291737 1.009429,2.967548 0.492669,4.408902 0.863993,-0.39294 1.828306,-0.562844 2.774568,-0.488856 0.954377,0.07462 1.88645,0.396299 2.692613,0.91254 0.806164,0.516241 1.48596,1.224996 1.982226,2.043608 0.924099,1.524342 1.189342,3.380523 1.031216,5.156072 -0.237627,2.668247 -1.393226,5.21732 -3.093645,7.287244 -1.369307,1.66686 -3.145502,3.06928 -5.224816,3.643627 -1.247381,0.344551 -2.556143,0.3817 -3.849869,0.412484 -9.47613,0.225482 -18.957624,0.225481 -28.433753,-2e-6 -1.88481,0.107991 -3.799356,-0.379195 -5.4033,-1.374953 C 10.672061,51.525659 9.055337,49.012691 8.6043535,46.304977 8.3512241,44.785183 8.451174,43.199295 8.9597145,41.74491 9.468255,40.290526 10.39222,38.973743 11.629248,38.055261 c 1.247328,-0.92613 2.768221,-1.425835 4.301907,-1.673532 1.264457,-0.204215 2.554965,-0.246567 3.830091,-0.125696 0.02648,-1.872111 0.546194,-3.735066 1.492667,-5.35052 z"
         id="path418"
         inkscape:path-effect="#path-effect420"
         inkscape:original-d="m 21.253913,30.905513 c 0.412132,-1.719049 2.116495,-4.520109 3.574877,-3.643626 9.102156,5.47036 8.808345,3.182022 5.774799,-1.512447 -1.079838,-1.671071 3.758561,1.008653 5.637306,1.512447 1.878745,0.503796 1.512802,1.283647 2.26867,1.924934 0.75587,0.64129 0.646846,1.70447 1.528772,2.070052 1.340956,-1.008657 2.596483,-1.750305 3.535679,-2.346473 0.939193,-0.596167 2.108617,-0.137141 3.16239,-0.206242 1.053775,-0.0691 2.20028,1.512802 3.299886,2.26867 1.099604,0.755869 0.28019,2.712767 0.492669,4.408902 0.763174,0.161484 1.92704,-0.236427 2.774568,-0.488856 0.847534,-0.252431 3.116915,1.971121 4.674839,2.956148 1.557924,0.985026 0.687832,3.437736 1.031216,5.156072 0.34338,1.718332 -2.062072,4.858521 -3.093645,7.287244 -1.031567,2.428728 -3.482857,2.429439 -5.224816,3.643627 -1.741963,1.214183 -2.566223,0.275345 -3.849869,0.412484 -1.283646,0.13714 -18.744828,3.54e-4 -28.433753,-2e-6 -2.011395,-0.457963 -3.937041,0.847532 -5.4033,-1.374953 -1.46626,-2.222484 -5.4085045,-3.918968 -4.3998475,-6.668517 1.0086516,-2.749552 1.4204265,-7.562595 3.0248945,-8.249716 1.604466,-0.68712 3.109927,-1.696807 4.301907,-1.673532 1.191981,0.02328 0.570322,5.032742 3.830091,-0.125696 0.668053,-1.912784 1.080537,-3.631477 1.492667,-5.35052 z"
         sodipodi:nodetypes="ssssscssscsssssscsssscs" />
      <path
         style="fill:#1a1a1a;stroke:#000000;stroke-width:0.282759px;stroke-linecap:butt;stroke-linejoin:miter;stroke-opacity:1"
         d="m 54.722216,47.074071 c 0.676097,-1.188713 1.665644,-2.19729 2.841263,-2.895906 1.376067,-0.817732 2.989031,-1.2035 4.589732,-1.202071 1.566347,0.0014 3.149732,0.375858 4.480453,1.202071 0.67185,0.417136 1.272446,0.943581 1.803107,1.529912 0.458239,0.506312 0.86593,1.05835 1.215049,1.645249 0.73769,-0.867946 1.723761,-1.522357 2.810108,-1.864944 0.80956,-0.2553 1.682654,-0.338234 2.513424,-0.163918 1.066311,0.223738 2.037685,0.883961 2.622705,1.803107 0.653448,1.026655 0.802281,2.358567 0.391566,3.504135 0.68669,-0.312303 1.453114,-0.44734 2.20519,-0.388535 0.758526,0.05931 1.499324,0.314973 2.140051,0.725274 0.640728,0.410301 1.181021,0.97361 1.575446,1.624231 0.734462,1.211526 0.945273,2.686794 0.819597,4.097976 -0.188863,2.120687 -1.107317,4.146655 -2.458787,5.791802 -1.088306,1.324797 -2.500001,2.439422 -4.152611,2.895905 -0.991402,0.273844 -2.031588,0.30337 -3.059824,0.327836 -7.531499,0.179207 -15.067261,0.179207 -22.598759,-2e-6 -1.498021,0.08583 -3.019676,-0.301378 -4.294469,-1.092793 -1.853553,-1.150719 -3.138503,-3.147992 -3.496939,-5.300046 -0.201184,-1.207911 -0.121745,-2.468354 0.282436,-3.624279 0.404181,-1.155925 1.138536,-2.202486 2.121709,-2.932483 0.99136,-0.736076 2.200145,-1.133234 3.419097,-1.3301 1.004973,-0.162307 2.030652,-0.195967 3.044104,-0.0999 l 1.186352,-4.252519 z"
         id="path418-9"
         inkscape:path-effect="#path-effect463"
         inkscape:original-d="m 54.722216,47.074071 c 0.327556,-1.366277 1.682161,-3.592521 2.841263,-2.895906 7.23427,4.347768 7.000752,2.529028 4.589732,-1.202071 -0.858241,-1.328144 2.987252,0.801664 4.480453,1.202071 1.493201,0.400411 1.202355,1.020227 1.803107,1.529912 0.600755,0.509689 0.514104,1.35469 1.215049,1.645249 1.065774,-0.801667 2.063649,-1.391119 2.810108,-1.864944 0.746459,-0.473826 1.675901,-0.109001 2.513424,-0.163918 0.837528,-0.05492 1.748753,1.202353 2.622705,1.803107 0.873951,0.600755 0.222692,2.15607 0.391566,3.504135 0.606562,0.128342 1.531586,-0.187908 2.20519,-0.388535 0.673607,-0.200629 2.477281,1.56662 3.715497,2.349505 1.238218,0.782886 0.546681,2.732266 0.819597,4.097976 0.272914,1.365707 -1.638907,3.861486 -2.458787,5.791802 -0.819874,1.930318 -2.768126,1.930885 -4.152611,2.895905 -1.384489,0.965017 -2.039599,0.218841 -3.059824,0.327836 -1.020225,0.109001 -14.898134,2.1e-4 -22.598759,-2e-6 -1.598629,-0.363982 -3.129106,0.673608 -4.294469,-1.092793 -1.165364,-1.7664 -4.298606,-3.114742 -3.496939,-5.300046 0.801662,-2.185306 1.128936,-6.010647 2.404145,-6.556762 1.275208,-0.546113 2.471728,-1.348599 3.419097,-1.3301 0.94737,0.01851 0.453285,3.999954 3.044104,-0.0999 0.53096,-1.520255 0.858796,-2.886247 1.186352,-4.252519 z"
         sodipodi:nodetypes="ssssscssscsssssscsssscs" />
    </g>
    <rect
       style="fill:#1a1a1a;stroke:#000000;stroke-width:0.378"
       id="rect537"
       width="1.8799281"
       height="9.8334703"
       x="24.36676"
       y="62.037628"
       ry="0.93996406" />
    <rect
       style="fill:#1a1a1a;stroke:#000000;stroke-width:0.378"
       id="rect539"
       width="2.024538"
       height="5.3505645"
       x="53.843243"
       y="72.032364"
       ry="0.93996406" />
    <rect
       style="fill:#1a1a1a;stroke:#000000;stroke-width:0.378"
       id="rect543"
       width="2.024538"
       height="5.3505645"
       x="26.680519"
       y="86.042862"
       ry="0.93996406" />
    <rect
       style="fill:#1a1a1a;stroke:#000000;stroke-width:0.378"
       id="rect547"
       width="2.024538"
       height="5.3505645"
       x="63.917549"
       y="92.188774"
       ry="0.93996406" />
    <rect
       style="fill:#1a1a1a;stroke:#000000;stroke-width:0.378"
       id="rect553"
       width="2.024538"
       height="5.3505645"
       x="50.468842"
       y="62.832981"
       ry="0.93996406" />
    <rect
       style="fill:#1a1a1a;stroke:#000000;stroke-width:0.378"
       id="rect559"
       width="1.8799281"
       height="9.8334703"
       x="79.136673"
       y="80.801445"
       ry="0.93996406" />
    <rect
       style="fill:#1a1a1a;stroke:#000000;stroke-width:0.378"
       id="rect561"
       width="1.8799281"
       height="9.8334703"
       x="47.954311"
       y="82.806313"
       ry="0.93996406" />
    <rect
       style="fill:#1a1a1a;stroke:#000000;stroke-width:0.378"
       id="rect563"
       width="1.8799281"
       height="9.8334703"
       x="86.6213"
       y="69.70195"
       ry="0.93996406" />
    <path
       style="fill:#1a1a1a;stroke:#000000;stroke-width:0.473151px;stroke-linecap:butt;stroke-linejoin:miter;stroke-opacity:1"
       d="m 40.242444,55.913585 5.389057,0.142721 -3.748909,8.990788 4.920441,-0.142701 -9.606577,19.694106 3.280297,-11.987718 -4.568984,0.142721 z"
       id="path583" />
    <path
       style="fill:#1a1a1a;stroke:#000000;stroke-width:0.365979px;stroke-linecap:butt;stroke-linejoin:miter;stroke-opacity:1"
       d="m 71.414614,69.182107 4.565206,0.100795 -3.175795,6.34986 4.16823,-0.100795 -8.137973,13.909218 2.778821,-8.466482 -3.870501,0.100795 z"
       id="path587" />
    <rect
       style="fill:#1a1a1a;stroke:#000000;stroke-width:0.378"
       id="rect591"
       width="2.024538"
       height="5.3505645"
       x="30.271837"
       y="74.635338"
       ry="0.93996406" />
    <rect
       style="fill:#1a1a1a;stroke:#000000;stroke-width:0.378"
       id="rect593"
       width="1.8799281"
       height="9.8334703"
       x="62.217319"
       y="77.620026"
       ry="0.93996406" />
  </g>
</svg>
